G04 EasyPC Gerber Version 21.0.3 Build 4286 *
G04 #@! TF.Part,Single*
G04 #@! TF.FileFunction,Legend,Top *
G04 #@! TF.FilePolarity,Positive *
%FSLAX35Y35*%
%MOIN*%
%ADD11C,0.00500*%
%ADD13C,0.00787*%
%ADD12C,0.01000*%
X0Y0D02*
D02*
D11*
X20874Y83650D02*
X25874D01*
X20874Y103600D02*
X25874D01*
X22624Y118287D02*
Y122037D01*
X24811*
X25436Y121725*
X25749Y121100*
X25436Y120475*
X24811Y120163*
X22624*
X24811D02*
X25749Y118287D01*
X27624D02*
Y122037D01*
X30749*
X30124Y120163D02*
X27624D01*
Y118287D02*
X30749D01*
X32624Y119225D02*
X32936Y118600D01*
X33561Y118287*
X34811*
X35436Y118600*
X35749Y119225*
X35436Y119850*
X34811Y120163*
X33561*
X32936Y120475*
X32624Y121100*
X32936Y121725*
X33561Y122037*
X34811*
X35436Y121725*
X35749Y121100*
X37624Y118287D02*
Y122037D01*
X40749*
X40124Y120163D02*
X37624D01*
Y118287D02*
X40749D01*
X44186D02*
Y122037D01*
X42624D02*
X45749D01*
X24874Y164737D02*
Y168487D01*
X27061*
X27686Y168175*
X27999Y167550*
X27686Y166925*
X27061Y166613*
X24874*
X27061D02*
X27999Y164737D01*
X30499D02*
X31749D01*
X31124D02*
Y168487D01*
X30499Y167863*
X25271Y129584D02*
X36098D01*
G75*
G03X39051Y132537J2953*
G01*
Y142380*
G75*
G03X36098Y145332I-2953*
G01*
X25271*
G75*
G03X22319Y142380J-2953*
G01*
Y132537*
G75*
G03X25271Y129584I2953*
G01*
X25874Y78650D02*
Y88650D01*
X35874*
Y78650*
X25874*
Y98600D02*
Y108600D01*
X35874*
Y98600*
X25874*
X30249Y70213D02*
X29936Y69900D01*
X29311Y69587*
X28374*
X27749Y69900*
X27436Y70213*
X27124Y70837*
Y72087*
X27436Y72713*
X27749Y73025*
X28374Y73337*
X29311*
X29936Y73025*
X30249Y72713*
X33686Y69587D02*
Y73337D01*
X32124Y70837*
X34624*
X30249Y90163D02*
X29936Y89850D01*
X29311Y89537*
X28374*
X27749Y89850*
X27436Y90163*
X27124Y90787*
Y92037*
X27436Y92663*
X27749Y92975*
X28374Y93287*
X29311*
X29936Y92975*
X30249Y92663*
X32436Y89850D02*
X33061Y89537D01*
X33686*
X34311Y89850*
X34624Y90475*
X34311Y91100*
X33686Y91413*
X33061*
X33686D02*
X34311Y91725D01*
X34624Y92350*
X34311Y92975*
X33686Y93287*
X33061*
X32436Y92975*
X30849Y11763D02*
X30536Y11450D01*
X29911Y11137*
X28974*
X28349Y11450*
X28036Y11763*
X27724Y12387*
Y13637*
X28036Y14263*
X28349Y14575*
X28974Y14887*
X29911*
X30536Y14575*
X30849Y14263*
X35224Y11137D02*
X32724D01*
X34911Y13325*
X35224Y13950*
X34911Y14575*
X34286Y14887*
X33349*
X32724Y14575*
X29074Y178600D02*
Y183600D01*
Y203600D02*
Y208600D01*
X30685Y143344D02*
G75*
G03Y131533J-5906D01*
G01*
G75*
G03Y143344J5906*
G01*
X31474Y48700D02*
G75*
G02X47474Y32700J-16000D01*
G01*
G75*
G02X31474Y16700I-16000*
G01*
G75*
G02X15474Y32700J16000*
G01*
G75*
G02X31474Y48700I16000*
G01*
X34074Y183600D02*
X24074D01*
Y203600*
X34074*
Y183600*
X35874Y83650D02*
X40874D01*
X35874Y103600D02*
X40874D01*
X40661Y42700D02*
Y40200D01*
X39411Y41450D02*
X41911D01*
X41674Y164737D02*
Y168487D01*
X43861*
X44486Y168175*
X44799Y167550*
X44486Y166925*
X43861Y166613*
X41674*
X43861D02*
X44799Y164737D01*
X46674D02*
X49174Y168487D01*
X46674*
X45124Y178600D02*
Y183600D01*
Y203600D02*
Y208600D01*
X46450Y123587D02*
Y127337D01*
X48637*
X49263Y127025*
X49575Y126400*
X49263Y125775*
X48637Y125463*
X46450*
X51450Y124837D02*
Y126087D01*
X51763Y126713*
X52075Y127025*
X52700Y127337*
X53325*
X53950Y127025*
X54263Y126713*
X54575Y126087*
Y124837*
X54263Y124213*
X53950Y123900*
X53325Y123587*
X52700*
X52075Y123900*
X51763Y124213*
X51450Y124837*
X56450Y127337D02*
X56763Y123587D01*
X58013Y125463*
X59263Y123587*
X59575Y127337*
X61450Y123587D02*
Y127337D01*
X64575*
X63950Y125463D02*
X61450D01*
Y123587D02*
X64575D01*
X66450D02*
Y127337D01*
X68637*
X69263Y127025*
X69575Y126400*
X69263Y125775*
X68637Y125463*
X66450*
X68637D02*
X69575Y123587D01*
X50124Y183600D02*
X40124D01*
Y203600*
X50124*
Y183600*
X57450Y145650D02*
G75*
G03X49450Y137650J-8000D01*
G01*
G75*
G03X57450Y129650I8000*
G01*
G75*
G03X64550Y132550I49J10020*
G01*
X64950Y132950*
Y142350*
X64550Y142750*
G75*
G03X57450Y145650I-7051J-7120*
G01*
X65465Y64187D02*
Y66063D01*
X63902Y67937*
X65465Y66063D02*
X67028Y67937D01*
X69528Y64187D02*
X70778D01*
X70152D02*
Y67937D01*
X69528Y67313*
X68249Y11413D02*
X67936Y11100D01*
X67311Y10787*
X66374*
X65749Y11100*
X65436Y11413*
X65124Y12037*
Y13287*
X65436Y13913*
X65749Y14225*
X66374Y14537*
X67311*
X67936Y14225*
X68249Y13913*
X70749Y10787D02*
X71999D01*
X71374D02*
Y14537D01*
X70749Y13913*
X70863Y200263D02*
X70550Y199637D01*
X69925Y199325*
X69300Y199637*
X68987Y200263*
Y202450*
X72737*
Y200263*
X72425Y199637*
X71800Y199325*
X71175Y199637*
X70863Y200263*
Y202450*
X68987Y195887D02*
Y196200D01*
X72737*
X71487Y192450D02*
X69925D01*
X69300Y192137*
X68987Y191513*
Y190887*
X69300Y190263*
X69925Y189950*
X71487D02*
X68987D01*
X69300Y184950D02*
X68987Y185263D01*
Y185887*
Y186513*
X69300Y187137*
X69925Y187450*
X70863*
X71175Y187137*
X71487Y186513*
Y185887*
X71175Y185263*
X70863Y184950*
X70550*
X70237Y185263*
X69925Y185887*
Y186513*
X70237Y187137*
X70550Y187450*
X71487Y181825D02*
Y180575D01*
X72113Y181200D02*
X69300D01*
X68987Y180887*
Y180575*
X69300Y180263*
X69925Y177450D02*
X69300Y177137D01*
X68987Y176513*
Y175887*
X69300Y175263*
X69925Y174950*
X70550*
X71175Y175263*
X71487Y175887*
Y176513*
X71175Y177137*
X70550Y177450*
X69925*
Y172450D02*
X69300Y172137D01*
X68987Y171513*
Y170887*
X69300Y170263*
X69925Y169950*
X70550*
X71175Y170263*
X71487Y170887*
Y171513*
X71175Y172137*
X70550Y172450*
X69925*
X71487Y166825D02*
Y165575D01*
X72113Y166200D02*
X69300D01*
X68987Y165887*
Y165575*
X69300Y165263*
X68987Y162450D02*
X72737D01*
X70550D02*
X71175Y162137D01*
X71487Y161513*
Y160887*
X71175Y160263*
X70550Y159950*
X68987*
X70124Y48350D02*
G75*
G02X86124Y32350J-16000D01*
G01*
G75*
G02X70124Y16350I-16000*
G01*
G75*
G02X54124Y32350J16000*
G01*
G75*
G02X70124Y48350I16000*
G01*
X79311Y42350D02*
Y39850D01*
X78061Y41100D02*
X80561D01*
X98561Y18913D02*
X99186Y18600D01*
X99499Y17975*
X99186Y17350*
X98561Y17037*
X96374*
Y20787*
X98561*
X99186Y20475*
X99499Y19850*
X99186Y19225*
X98561Y18913*
X96374*
X101374Y19225D02*
X101999Y19537D01*
X102936*
X103561Y19225*
X103874Y18600*
Y17663*
X103561Y17350*
X102936Y17037*
X102311*
X101686Y17350*
X101374Y17663*
Y17975*
X101686Y18287*
X102311Y18600*
X102936*
X103561Y18287*
X103874Y17975*
Y17663D02*
Y17037D01*
X106999Y19537D02*
X108249D01*
X107624Y20163D02*
Y17350D01*
X107936Y17037*
X108249*
X108561Y17350*
X111999Y19537D02*
X113249D01*
X112624Y20163D02*
Y17350D01*
X112936Y17037*
X113249*
X113561Y17350*
X118874D02*
X118561Y17037D01*
X117936*
X117311*
X116686Y17350*
X116374Y17975*
Y18913*
X116686Y19225*
X117311Y19537*
X117936*
X118561Y19225*
X118874Y18913*
Y18600*
X118561Y18287*
X117936Y17975*
X117311*
X116686Y18287*
X116374Y18600*
X121374Y17037D02*
Y19537D01*
Y18600D02*
X121686Y19225D01*
X122311Y19537*
X122936*
X123561Y19225*
X126374Y19537D02*
X126686Y18287D01*
X127311Y17663*
X127936*
X128561Y18287*
X128874Y19537*
X128561Y18287D02*
X128249Y17037D01*
X127936Y16413*
X127311Y16100*
X126686Y16413*
X100537Y65637D02*
X101787D01*
X101163D02*
Y69387D01*
X100537D02*
X101787D01*
X107725Y66263D02*
X107413Y65950D01*
X106787Y65637*
X105850*
X105225Y65950*
X104913Y66263*
X104600Y66887*
Y68137*
X104913Y68763*
X105225Y69075*
X105850Y69387*
X106787*
X107413Y69075*
X107725Y68763*
X110225Y65637D02*
X111475D01*
X110850D02*
Y69387D01*
X110225Y68763*
X137350Y168825D02*
X137663Y168200D01*
X138287Y167887*
X139537*
X140163Y168200*
X140475Y168825*
X140163Y169450*
X139537Y169763*
X138287*
X137663Y170075*
X137350Y170700*
X137663Y171325*
X138287Y171637*
X139537*
X140163Y171325*
X140475Y170700*
X144850Y168200D02*
X144537Y167887D01*
X143913*
X143287*
X142663Y168200*
X142350Y168825*
Y169763*
X142663Y170075*
X143287Y170387*
X143913*
X144537Y170075*
X144850Y169763*
Y169450*
X144537Y169137*
X143913Y168825*
X143287*
X142663Y169137*
X142350Y169450*
X147350Y167887D02*
Y170387D01*
Y169450D02*
X147663Y170075D01*
X148287Y170387*
X148913*
X149537Y170075*
X152350Y170387D02*
X153600Y167887D01*
X154850Y170387*
X157350Y168825D02*
X157663Y168200D01*
X158287Y167887*
X158913*
X159537Y168200*
X159850Y168825*
Y169450*
X159537Y170075*
X158913Y170387*
X158287*
X157663Y170075*
X157350Y169450*
Y168825*
X138611Y22537D02*
X139861D01*
X139236D02*
Y26287D01*
X138611D02*
X139861D01*
X145799Y23163D02*
X145486Y22850D01*
X144861Y22537*
X143924*
X143299Y22850*
X142986Y23163*
X142674Y23787*
Y25037*
X142986Y25663*
X143299Y25975*
X143924Y26287*
X144861*
X145486Y25975*
X145799Y25663*
X147986Y22850D02*
X148611Y22537D01*
X149236*
X149861Y22850*
X150174Y23475*
Y25350*
X149861Y25975*
X149236Y26287*
X148611*
X147986Y25975*
X147674Y25350*
Y23475*
X147986Y22850*
X149861Y25975*
X168249Y113913D02*
X167936Y113600D01*
X167311Y113287*
X166374*
X165749Y113600*
X165436Y113913*
X165124Y114537*
Y115787*
X165436Y116413*
X165749Y116725*
X166374Y117037*
X167311*
X167936Y116725*
X168249Y116413*
X171061Y115163D02*
X171686D01*
X172311Y115475*
X172624Y116100*
X172311Y116725*
X171686Y117037*
X171061*
X170436Y116725*
X170124Y116100*
X170436Y115475*
X171061Y115163*
X170436Y114850*
X170124Y114225*
X170436Y113600*
X171061Y113287*
X171686*
X172311Y113600*
X172624Y114225*
X172311Y114850*
X171686Y115163*
X170124Y191850D02*
X180124D01*
Y181850*
X170124*
Y191850*
X175124Y181850D02*
Y176850D01*
Y196850D02*
Y191850D01*
X177624Y128163D02*
X175124D01*
X176374Y129413D02*
Y126913D01*
X183561Y69537D02*
X184811D01*
X184186D02*
Y73287D01*
X183561D02*
X184811D01*
X190749Y70163D02*
X190436Y69850D01*
X189811Y69537*
X188874*
X188249Y69850*
X187936Y70163*
X187624Y70787*
Y72037*
X187936Y72663*
X188249Y72975*
X188874Y73287*
X189811*
X190436Y72975*
X190749Y72663*
X195124Y69537D02*
X192624D01*
X194811Y71725*
X195124Y72350*
X194811Y72975*
X194186Y73287*
X193249*
X192624Y72975*
X185749Y183413D02*
X185436Y183100D01*
X184811Y182787*
X183874*
X183249Y183100*
X182936Y183413*
X182624Y184037*
Y185287*
X182936Y185913*
X183249Y186225*
X183874Y186537*
X184811*
X185436Y186225*
X185749Y185913*
X187624Y182787D02*
X190124Y186537D01*
X187624*
X183624Y137350D02*
G75*
G02X167624Y121350I-16000D01*
G01*
G75*
G02X151624Y137350J16000*
G01*
G75*
G02X167624Y153350I16000*
G01*
G75*
G02X183624Y137350J-16000*
G01*
X195374Y147350D02*
G75*
G02X211374Y163350I16000D01*
G01*
G75*
G02X227374Y147350J-16000*
G01*
G75*
G02X211374Y131350I-16000*
G01*
G75*
G02X195374Y147350J16000*
G01*
X197624Y44537D02*
Y48287D01*
X199186Y46413*
X200749Y48287*
Y44537*
X202624Y45475D02*
X202936Y44850D01*
X203561Y44537*
X204186*
X204811Y44850*
X205124Y45475*
Y46100*
X204811Y46725*
X204186Y47037*
X203561*
X202936Y46725*
X202624Y46100*
Y45475*
X208249Y47037D02*
X209499D01*
X208874Y47663D02*
Y44850D01*
X209186Y44537*
X209499*
X209811Y44850*
X212624Y45475D02*
X212936Y44850D01*
X213561Y44537*
X214186*
X214811Y44850*
X215124Y45475*
Y46100*
X214811Y46725*
X214186Y47037*
X213561*
X212936Y46725*
X212624Y46100*
Y45475*
X217624Y44537D02*
Y47037D01*
Y46100D02*
X217936Y46725D01*
X218561Y47037*
X219186*
X219811Y46725*
X222624Y44537D02*
X224186Y48287D01*
X225749Y44537*
X223249Y46100D02*
X225124D01*
X198874Y191850D02*
X208874D01*
Y181850*
X198874*
Y191850*
X201374Y156537D02*
X203874D01*
X202624Y155287D02*
Y157787D01*
X203874Y181850D02*
Y176850D01*
Y196850D02*
Y191850D01*
X211999Y123913D02*
X211686Y123600D01*
X211061Y123287*
X210124*
X209499Y123600*
X209186Y123913*
X208874Y124537*
Y125787*
X209186Y126413*
X209499Y126725*
X210124Y127037*
X211061*
X211686Y126725*
X211999Y126413*
X213874Y124225D02*
X214186Y124850D01*
X214811Y125163*
X215436*
X216061Y124850*
X216374Y124225*
X216061Y123600*
X215436Y123287*
X214811*
X214186Y123600*
X213874Y124225*
Y125163*
X214186Y126100*
X214811Y126725*
X215436Y127037*
X214499Y183413D02*
X214186Y183100D01*
X213561Y182787*
X212624*
X211999Y183100*
X211686Y183413*
X211374Y184037*
Y185287*
X211686Y185913*
X211999Y186225*
X212624Y186537*
X213561*
X214186Y186225*
X214499Y185913*
X216374Y183100D02*
X216999Y182787D01*
X217936*
X218561Y183100*
X218874Y183725*
Y184037*
X218561Y184663*
X217936Y184975*
X216374*
Y186537*
X218874*
D02*
D12*
X56450Y214050D02*
Y154050D01*
X66450*
Y214050*
X56450*
X105124Y44850D02*
Y24850D01*
X115124*
Y44850*
X105124*
X139850Y204450D02*
Y174450D01*
X149850*
Y204450*
X139850*
X220124Y61100D02*
X200124D01*
Y51100*
X220124*
Y61100*
D02*
D13*
X54720Y105848D02*
G75*
G02X73027I9154D01*
G01*
Y80652*
G75*
G02X54720I-9154*
G01*
Y105848*
X75193Y83388D02*
G75*
G02Y83049J-169D01*
G01*
Y83388D02*
G75*
G02Y83049J-169D01*
G01*
G75*
G02Y83388J169*
G01*
X87996Y216950D02*
X120598D01*
X91102Y79950D02*
X120598D01*
X135468Y29102D02*
X153972D01*
Y70598*
X141374*
X198519Y77261D02*
X179228D01*
Y109939*
X198519*
Y77261*
X205901D02*
X199897D01*
X0Y0D02*
M02*
