G04 EasyPC Gerber Version 21.0.3 Build 4286 *
G04 #@! TF.Part,Single*
G04 #@! TF.FileFunction,Legend,Top *
G04 #@! TF.FilePolarity,Positive *
%FSLAX35Y35*%
%MOIN*%
%ADD11C,0.00500*%
%ADD13C,0.00787*%
%ADD12C,0.01000*%
X0Y0D02*
D02*
D11*
X18826Y117737D02*
Y121487D01*
X21014*
X21639Y121175*
X21952Y120550*
X21639Y119925*
X21014Y119613*
X18826*
X21014D02*
X21952Y117737D01*
X23826D02*
Y121487D01*
X26952*
X26326Y119613D02*
X23826D01*
Y117737D02*
X26952D01*
X28826Y118675D02*
X29139Y118050D01*
X29764Y117737*
X31014*
X31639Y118050*
X31952Y118675*
X31639Y119300*
X31014Y119613*
X29764*
X29139Y119925*
X28826Y120550*
X29139Y121175*
X29764Y121487*
X31014*
X31639Y121175*
X31952Y120550*
X33826Y117737D02*
Y121487D01*
X36952*
X36326Y119613D02*
X33826D01*
Y117737D02*
X36952D01*
X40389D02*
Y121487D01*
X38826D02*
X41952D01*
X18850Y159987D02*
Y163737D01*
X21037*
X21663Y163425*
X21975Y162800*
X21663Y162175*
X21037Y161863*
X18850*
X21037D02*
X21975Y159987D01*
X24475D02*
X25725D01*
X25100D02*
Y163737D01*
X24475Y163113*
X22050Y68650D02*
X27050D01*
X22050Y88450D02*
X27050D01*
X22050Y108250D02*
X27050D01*
X23050Y173850D02*
Y178850D01*
Y198850D02*
Y203850D01*
X23448Y129034D02*
X34274D01*
G75*
G03X37227Y131987J2953*
G01*
Y141830*
G75*
G03X34274Y144782I-2953*
G01*
X23448*
G75*
G03X20495Y141830J-2953*
G01*
Y131987*
G75*
G03X23448Y129034I2953*
G01*
X27050Y63650D02*
Y73650D01*
X37050*
Y63650*
X27050*
Y83450D02*
Y93450D01*
X37050*
Y83450*
X27050*
Y103250D02*
Y113250D01*
X37050*
Y103250*
X27050*
X30849Y11763D02*
X30536Y11450D01*
X29911Y11137*
X28974*
X28349Y11450*
X28036Y11763*
X27724Y12387*
Y13637*
X28036Y14263*
X28349Y14575*
X28974Y14887*
X29911*
X30536Y14575*
X30849Y14263*
X33349Y11137D02*
X34599D01*
X33974D02*
Y14887D01*
X33349Y14263*
X38349Y11137D02*
X39599D01*
X38974D02*
Y14887D01*
X38349Y14263*
X28050Y178850D02*
X18050D01*
Y198850*
X28050*
Y178850*
X31425Y58813D02*
X31113Y58500D01*
X30487Y58187*
X29550*
X28925Y58500*
X28613Y58813*
X28300Y59437*
Y60687*
X28613Y61313*
X28925Y61625*
X29550Y61937*
X30487*
X31113Y61625*
X31425Y61313*
X34863Y58187D02*
Y61937D01*
X33300Y59437*
X35800*
X31425Y78013D02*
X31113Y77700D01*
X30487Y77387*
X29550*
X28925Y77700*
X28613Y78013*
X28300Y78637*
Y79887*
X28613Y80513*
X28925Y80825*
X29550Y81137*
X30487*
X31113Y80825*
X31425Y80513*
X33613Y77700D02*
X34237Y77387D01*
X34863*
X35487Y77700*
X35800Y78325*
X35487Y78950*
X34863Y79263*
X34237*
X34863D02*
X35487Y79575D01*
X35800Y80200*
X35487Y80825*
X34863Y81137*
X34237*
X33613Y80825*
X31425Y98413D02*
X31113Y98100D01*
X30487Y97787*
X29550*
X28925Y98100*
X28613Y98413*
X28300Y99037*
Y100287*
X28613Y100913*
X28925Y101225*
X29550Y101537*
X30487*
X31113Y101225*
X31425Y100913*
X35800Y97787D02*
X33300D01*
X35487Y99975*
X35800Y100600*
X35487Y101225*
X34863Y101537*
X33925*
X33300Y101225*
X28861Y142794D02*
G75*
G03Y130983J-5906D01*
G01*
G75*
G03Y142794J5906*
G01*
X31474Y48700D02*
G75*
G02X47474Y32700J-16000D01*
G01*
G75*
G02X31474Y16700I-16000*
G01*
G75*
G02X15474Y32700J16000*
G01*
G75*
G02X31474Y48700I16000*
G01*
X36400Y159987D02*
Y163737D01*
X38587*
X39213Y163425*
X39525Y162800*
X39213Y162175*
X38587Y161863*
X36400*
X38587D02*
X39525Y159987D01*
X41400D02*
X43900Y163737D01*
X41400*
X37050Y68650D02*
X42050D01*
X37050Y88450D02*
X42050D01*
X37050Y108250D02*
X42050D01*
X40661Y42700D02*
Y40200D01*
X39411Y41450D02*
X41911D01*
X39850Y173850D02*
Y178850D01*
Y198850D02*
Y203850D01*
X44850Y178850D02*
X34850D01*
Y198850*
X44850*
Y178850*
X50650Y106187D02*
Y109937D01*
X52837*
X53463Y109625*
X53775Y109000*
X53463Y108375*
X52837Y108063*
X50650*
X55650Y107437D02*
Y108687D01*
X55963Y109313*
X56275Y109625*
X56900Y109937*
X57525*
X58150Y109625*
X58463Y109313*
X58775Y108687*
Y107437*
X58463Y106813*
X58150Y106500*
X57525Y106187*
X56900*
X56275Y106500*
X55963Y106813*
X55650Y107437*
X60650Y109937D02*
X60963Y106187D01*
X62213Y108063*
X63463Y106187*
X63775Y109937*
X65650Y106187D02*
Y109937D01*
X68775*
X68150Y108063D02*
X65650D01*
Y106187D02*
X68775D01*
X70650D02*
Y109937D01*
X72837*
X73463Y109625*
X73775Y109000*
X73463Y108375*
X72837Y108063*
X70650*
X72837D02*
X73775Y106187D01*
X61650Y128250D02*
G75*
G03X53650Y120250J-8000D01*
G01*
G75*
G03X61650Y112250I8000*
G01*
G75*
G03X68750Y115150I49J10020*
G01*
X69150Y115550*
Y124950*
X68750Y125350*
G75*
G03X61650Y128250I-7051J-7120*
G01*
X65465Y49787D02*
Y51663D01*
X63902Y53537*
X65465Y51663D02*
X67028Y53537D01*
X69528Y49787D02*
X70778D01*
X70152D02*
Y53537D01*
X69528Y52913*
X72663Y203863D02*
X72350Y203237D01*
X71725Y202925*
X71100Y203237*
X70787Y203863*
Y206050*
X74537*
Y203863*
X74225Y203237*
X73600Y202925*
X72975Y203237*
X72663Y203863*
Y206050*
X70787Y199487D02*
Y199800D01*
X74537*
X73287Y196050D02*
X71725D01*
X71100Y195737*
X70787Y195113*
Y194487*
X71100Y193863*
X71725Y193550*
X73287D02*
X70787D01*
X71100Y188550D02*
X70787Y188863D01*
Y189487*
Y190113*
X71100Y190737*
X71725Y191050*
X72663*
X72975Y190737*
X73287Y190113*
Y189487*
X72975Y188863*
X72663Y188550*
X72350*
X72037Y188863*
X71725Y189487*
Y190113*
X72037Y190737*
X72350Y191050*
X73287Y185425D02*
Y184175D01*
X73913Y184800D02*
X71100D01*
X70787Y184487*
Y184175*
X71100Y183863*
X71725Y181050D02*
X71100Y180737D01*
X70787Y180113*
Y179487*
X71100Y178863*
X71725Y178550*
X72350*
X72975Y178863*
X73287Y179487*
Y180113*
X72975Y180737*
X72350Y181050*
X71725*
Y176050D02*
X71100Y175737D01*
X70787Y175113*
Y174487*
X71100Y173863*
X71725Y173550*
X72350*
X72975Y173863*
X73287Y174487*
Y175113*
X72975Y175737*
X72350Y176050*
X71725*
X73287Y170425D02*
Y169175D01*
X73913Y169800D02*
X71100D01*
X70787Y169487*
Y169175*
X71100Y168863*
X70787Y166050D02*
X74537D01*
X72350D02*
X72975Y165737D01*
X73287Y165113*
Y164487*
X72975Y163863*
X72350Y163550*
X70787*
X75775Y12013D02*
X75463Y11700D01*
X74837Y11387*
X73900*
X73275Y11700*
X72963Y12013*
X72650Y12637*
Y13887*
X72963Y14513*
X73275Y14825*
X73900Y15137*
X74837*
X75463Y14825*
X75775Y14513*
X78275Y11387D02*
X79525D01*
X78900D02*
Y15137D01*
X78275Y14513*
X82963Y11700D02*
X83587Y11387D01*
X84213*
X84837Y11700*
X85150Y12325*
Y14200*
X84837Y14825*
X84213Y15137*
X83587*
X82963Y14825*
X82650Y14200*
Y12325*
X82963Y11700*
X84837Y14825*
X77650Y48950D02*
G75*
G02X93650Y32950J-16000D01*
G01*
G75*
G02X77650Y16950I-16000*
G01*
G75*
G02X61650Y32950J16000*
G01*
G75*
G02X77650Y48950I16000*
G01*
X86837Y42950D02*
Y40450D01*
X85587Y41700D02*
X88087D01*
X102587Y68987D02*
X103837D01*
X103213D02*
Y72737D01*
X102587D02*
X103837D01*
X109775Y69613D02*
X109463Y69300D01*
X108837Y68987*
X107900*
X107275Y69300*
X106963Y69613*
X106650Y70237*
Y71487*
X106963Y72113*
X107275Y72425*
X107900Y72737*
X108837*
X109463Y72425*
X109775Y72113*
X112275Y68987D02*
X113525D01*
X112900D02*
Y72737D01*
X112275Y72113*
X110650Y5725D02*
X110963Y5100D01*
X111587Y4787*
X112213*
X112837Y5100*
X113150Y5725*
Y6350*
X112837Y6975*
X112213Y7287*
X111587*
X110963Y6975*
X110650Y6350*
Y4787D02*
Y8537D01*
X115650Y6975D02*
X116275Y7287D01*
X117213*
X117837Y6975*
X118150Y6350*
Y5413*
X117837Y5100*
X117213Y4787*
X116587*
X115963Y5100*
X115650Y5413*
Y5725*
X115963Y6037*
X116587Y6350*
X117213*
X117837Y6037*
X118150Y5725*
Y5413D02*
Y4787D01*
X121275Y7287D02*
X122525D01*
X121900Y7913D02*
Y5100D01*
X122213Y4787*
X122525*
X122837Y5100*
X126275Y7287D02*
X127525D01*
X126900Y7913D02*
Y5100D01*
X127213Y4787*
X127525*
X127837Y5100*
X133150D02*
X132837Y4787D01*
X132213*
X131587*
X130963Y5100*
X130650Y5725*
Y6663*
X130963Y6975*
X131587Y7287*
X132213*
X132837Y6975*
X133150Y6663*
Y6350*
X132837Y6037*
X132213Y5725*
X131587*
X130963Y6037*
X130650Y6350*
X135650Y4787D02*
Y7287D01*
Y6350D02*
X135963Y6975D01*
X136587Y7287*
X137213*
X137837Y6975*
X140650Y7287D02*
X140963Y6037D01*
X141587Y5413*
X142213*
X142837Y6037*
X143150Y7287*
X142837Y6037D02*
X142525Y4787D01*
X142213Y4163*
X141587Y3850*
X140963Y4163*
X124787Y32987D02*
X126037D01*
X125413D02*
Y36737D01*
X124787D02*
X126037D01*
X131975Y33613D02*
X131663Y33300D01*
X131037Y32987*
X130100*
X129475Y33300*
X129163Y33613*
X128850Y34237*
Y35487*
X129163Y36113*
X129475Y36425*
X130100Y36737*
X131037*
X131663Y36425*
X131975Y36113*
X134163Y33300D02*
X134787Y32987D01*
X135413*
X136037Y33300*
X136350Y33925*
X136037Y34550*
X135413Y34863*
X134787*
X135413D02*
X136037Y35175D01*
X136350Y35800*
X136037Y36425*
X135413Y36737*
X134787*
X134163Y36425*
X137650Y206125D02*
X137963Y205500D01*
X138587Y205187*
X139837*
X140463Y205500*
X140775Y206125*
X140463Y206750*
X139837Y207063*
X138587*
X137963Y207375*
X137650Y208000*
X137963Y208625*
X138587Y208937*
X139837*
X140463Y208625*
X140775Y208000*
X145150Y205500D02*
X144837Y205187D01*
X144213*
X143587*
X142963Y205500*
X142650Y206125*
Y207063*
X142963Y207375*
X143587Y207687*
X144213*
X144837Y207375*
X145150Y207063*
Y206750*
X144837Y206437*
X144213Y206125*
X143587*
X142963Y206437*
X142650Y206750*
X147650Y205187D02*
Y207687D01*
Y206750D02*
X147963Y207375D01*
X148587Y207687*
X149213*
X149837Y207375*
X152650Y207687D02*
X153900Y205187D01*
X155150Y207687*
X157650Y206125D02*
X157963Y205500D01*
X158587Y205187*
X159213*
X159837Y205500*
X160150Y206125*
Y206750*
X159837Y207375*
X159213Y207687*
X158587*
X157963Y207375*
X157650Y206750*
Y206125*
X168249Y113913D02*
X167936Y113600D01*
X167311Y113287*
X166374*
X165749Y113600*
X165436Y113913*
X165124Y114537*
Y115787*
X165436Y116413*
X165749Y116725*
X166374Y117037*
X167311*
X167936Y116725*
X168249Y116413*
X171061Y115163D02*
X171686D01*
X172311Y115475*
X172624Y116100*
X172311Y116725*
X171686Y117037*
X171061*
X170436Y116725*
X170124Y116100*
X170436Y115475*
X171061Y115163*
X170436Y114850*
X170124Y114225*
X170436Y113600*
X171061Y113287*
X171686*
X172311Y113600*
X172624Y114225*
X172311Y114850*
X171686Y115163*
X170124Y191850D02*
X180124D01*
Y181850*
X170124*
Y191850*
X175124Y181850D02*
Y176850D01*
Y196850D02*
Y191850D01*
X177624Y128163D02*
X175124D01*
X176374Y129413D02*
Y126913D01*
X183561Y69537D02*
X184811D01*
X184186D02*
Y73287D01*
X183561D02*
X184811D01*
X190749Y70163D02*
X190436Y69850D01*
X189811Y69537*
X188874*
X188249Y69850*
X187936Y70163*
X187624Y70787*
Y72037*
X187936Y72663*
X188249Y72975*
X188874Y73287*
X189811*
X190436Y72975*
X190749Y72663*
X195124Y69537D02*
X192624D01*
X194811Y71725*
X195124Y72350*
X194811Y72975*
X194186Y73287*
X193249*
X192624Y72975*
X185749Y183413D02*
X185436Y183100D01*
X184811Y182787*
X183874*
X183249Y183100*
X182936Y183413*
X182624Y184037*
Y185287*
X182936Y185913*
X183249Y186225*
X183874Y186537*
X184811*
X185436Y186225*
X185749Y185913*
X187624Y182787D02*
X190124Y186537D01*
X187624*
X183624Y137350D02*
G75*
G02X167624Y121350I-16000D01*
G01*
G75*
G02X151624Y137350J16000*
G01*
G75*
G02X167624Y153350I16000*
G01*
G75*
G02X183624Y137350J-16000*
G01*
X195374Y147350D02*
G75*
G02X211374Y163350I16000D01*
G01*
G75*
G02X227374Y147350J-16000*
G01*
G75*
G02X211374Y131350I-16000*
G01*
G75*
G02X195374Y147350J16000*
G01*
X197624Y44537D02*
Y48287D01*
X199186Y46413*
X200749Y48287*
Y44537*
X202624Y45475D02*
X202936Y44850D01*
X203561Y44537*
X204186*
X204811Y44850*
X205124Y45475*
Y46100*
X204811Y46725*
X204186Y47037*
X203561*
X202936Y46725*
X202624Y46100*
Y45475*
X208249Y47037D02*
X209499D01*
X208874Y47663D02*
Y44850D01*
X209186Y44537*
X209499*
X209811Y44850*
X212624Y45475D02*
X212936Y44850D01*
X213561Y44537*
X214186*
X214811Y44850*
X215124Y45475*
Y46100*
X214811Y46725*
X214186Y47037*
X213561*
X212936Y46725*
X212624Y46100*
Y45475*
X217624Y44537D02*
Y47037D01*
Y46100D02*
X217936Y46725D01*
X218561Y47037*
X219186*
X219811Y46725*
X222624Y44537D02*
X224186Y48287D01*
X225749Y44537*
X223249Y46100D02*
X225124D01*
X198874Y191850D02*
X208874D01*
Y181850*
X198874*
Y191850*
X201374Y156537D02*
X203874D01*
X202624Y155287D02*
Y157787D01*
X203874Y181850D02*
Y176850D01*
Y196850D02*
Y191850D01*
X211999Y123913D02*
X211686Y123600D01*
X211061Y123287*
X210124*
X209499Y123600*
X209186Y123913*
X208874Y124537*
Y125787*
X209186Y126413*
X209499Y126725*
X210124Y127037*
X211061*
X211686Y126725*
X211999Y126413*
X213874Y124225D02*
X214186Y124850D01*
X214811Y125163*
X215436*
X216061Y124850*
X216374Y124225*
X216061Y123600*
X215436Y123287*
X214811*
X214186Y123600*
X213874Y124225*
Y125163*
X214186Y126100*
X214811Y126725*
X215436Y127037*
X214499Y183413D02*
X214186Y183100D01*
X213561Y182787*
X212624*
X211999Y183100*
X211686Y183413*
X211374Y184037*
Y185287*
X211686Y185913*
X211999Y186225*
X212624Y186537*
X213561*
X214186Y186225*
X214499Y185913*
X216374Y183100D02*
X216999Y182787D01*
X217936*
X218561Y183100*
X218874Y183725*
Y184037*
X218561Y184663*
X217936Y184975*
X216374*
Y186537*
X218874*
D02*
D12*
X58250Y217650D02*
Y157650D01*
X68250*
Y217650*
X58250*
X133050Y19050D02*
X113050D01*
Y9050*
X133050*
Y19050*
X166050Y221250D02*
X136050D01*
Y211250*
X166050*
Y221250*
X220124Y61100D02*
X200124D01*
Y51100*
X220124*
Y61100*
D02*
D13*
X54720Y91448D02*
G75*
G02X73027I9154D01*
G01*
Y66252*
G75*
G02X54720I-9154*
G01*
Y91448*
X75193Y68988D02*
G75*
G02Y68649J-169D01*
G01*
Y68988D02*
G75*
G02Y68649J-169D01*
G01*
G75*
G02Y68988J169*
G01*
X87996Y217550D02*
X120598D01*
X91102Y80550D02*
X120598D01*
X148234Y38725D02*
Y57741D01*
X106266*
Y44650*
X198519Y77261D02*
X179228D01*
Y109939*
X198519*
Y77261*
X205901D02*
X199897D01*
X0Y0D02*
M02*
