G04 EasyPC Gerber Version 21.0.3 Build 4286 *
G04 #@! TF.Part,Single*
G04 #@! TF.FileFunction,Soldermask,Top *
G04 #@! TF.FilePolarity,Negative *
%FSLAX35Y35*%
%MOIN*%
G04 #@! TA.AperFunction,ComponentPad*
%ADD87R,0.05000X0.09000*%
%ADD85R,0.05461X0.05461*%
%ADD83R,0.07000X0.07000*%
%ADD81R,0.08618X0.08618*%
%ADD88C,0.05331*%
%ADD86C,0.05461*%
%ADD84C,0.07000*%
%ADD89C,0.08000*%
%ADD82C,0.08618*%
G04 #@! TA.AperFunction,SMDPad*
%ADD90R,0.07004X0.02772*%
X0Y0D02*
D02*
D81*
X141374Y59850D03*
D02*
D82*
Y39850D03*
Y49850D03*
D02*
D83*
X61450Y159050D03*
Y169050D03*
Y179050D03*
Y189050D03*
Y199050D03*
Y209050D03*
X110124Y29850D03*
Y39850D03*
X144850Y179450D03*
Y189450D03*
Y199450D03*
X205124Y56100D03*
X215124D03*
D02*
D84*
X15874Y83650D03*
Y103600D03*
X29074Y173600D03*
Y213600D03*
X31474Y25200D03*
Y40200D03*
X45124Y173600D03*
Y213600D03*
X45874Y83650D03*
Y103600D03*
X70124Y24850D03*
Y39850D03*
X160124Y137350D03*
X175124D03*
Y171850D03*
Y201850D03*
X203874Y147350D03*
Y171850D03*
Y201850D03*
X218874Y147350D03*
D02*
D85*
X90224Y213450D03*
D02*
D86*
Y83450D03*
Y93450D03*
Y103450D03*
Y113450D03*
Y123450D03*
Y133450D03*
Y143450D03*
Y153450D03*
Y163450D03*
Y173450D03*
Y183450D03*
Y193450D03*
Y203450D03*
X121476Y83450D03*
Y93450D03*
Y103450D03*
Y113450D03*
Y123450D03*
Y133450D03*
Y143450D03*
Y153450D03*
Y163450D03*
Y173450D03*
Y183450D03*
Y193450D03*
Y203450D03*
Y213450D03*
D02*
D87*
X53950Y137650D03*
X61450D03*
D02*
D88*
X63874Y83644D03*
Y102856D03*
D02*
D89*
X18874Y128600D03*
Y146317D03*
X42496Y128600D03*
Y146317D03*
D02*
D90*
X174850Y79525D03*
Y82084D03*
Y84643D03*
Y87202D03*
Y89761D03*
Y92320D03*
Y94880D03*
Y97439D03*
Y99998D03*
Y102557D03*
Y105116D03*
Y107675D03*
X202897Y79525D03*
Y82084D03*
Y84643D03*
Y87202D03*
Y89761D03*
Y92320D03*
Y94880D03*
Y97439D03*
Y99998D03*
Y102557D03*
Y105116D03*
Y107675D03*
X0Y0D02*
M02*
