G04 EasyPC Gerber Version 21.0.3 Build 4286 *
G04 #@! TF.Part,Single*
G04 #@! TF.FileFunction,Drillmap *
G04 #@! TF.FilePolarity,Positive *
%FSLAX35Y35*%
%MOIN*%
%ADD11C,0.00500*%
G04 #@! TA.AperFunction,WasherPad*
%ADD21C,0.10000*%
X0Y0D02*
D02*
D11*
X29237Y76463D02*
X29863Y76150D01*
X30175Y75525*
X29863Y74900*
X29237Y74587*
X27050*
Y78337*
X29237*
X29863Y78025*
X30175Y77400*
X29863Y76775*
X29237Y76463*
X27050*
X29237Y96263D02*
X29863Y95950D01*
X30175Y95325*
X29863Y94700*
X29237Y94387*
X27050*
Y98137*
X29237*
X29863Y97825*
X30175Y97200*
X29863Y96575*
X29237Y96263*
X27050*
X29237Y116063D02*
X29863Y115750D01*
X30175Y115125*
X29863Y114500*
X29237Y114187*
X27050*
Y117937*
X29237*
X29863Y117625*
X30175Y117000*
X29863Y116375*
X29237Y116063*
X27050*
Y134613D02*
X27363Y134300D01*
X27987Y133987*
X28613Y134300*
X28925Y134613*
Y137737*
X29550*
X28925D02*
X27675D01*
X27050Y152329D02*
X27363Y152017D01*
X27987Y151704*
X28613Y152017*
X28925Y152329*
Y155454*
X29550*
X28925D02*
X27675D01*
X35237Y176663D02*
X35863Y176350D01*
X36175Y175725*
X35863Y175100*
X35237Y174787*
X33050*
Y178537*
X35237*
X35863Y178225*
X36175Y177600*
X35863Y176975*
X35237Y176663*
X33050*
X35237Y216663D02*
X35863Y216350D01*
X36175Y215725*
X35863Y215100*
X35237Y214787*
X33050*
Y218537*
X35237*
X35863Y218225*
X36175Y217600*
X35863Y216975*
X35237Y216663*
X33050*
X43661Y33013D02*
X44286Y32700D01*
X44599Y32075*
X44286Y31450*
X43661Y31137*
X41474*
Y34887*
X43661*
X44286Y34575*
X44599Y33950*
X44286Y33325*
X43661Y33013*
X41474*
X43661Y48013D02*
X44286Y47700D01*
X44599Y47075*
X44286Y46450*
X43661Y46137*
X41474*
Y49887*
X43661*
X44286Y49575*
X44599Y48950*
X44286Y48325*
X43661Y48013*
X41474*
X52037Y176663D02*
X52663Y176350D01*
X52975Y175725*
X52663Y175100*
X52037Y174787*
X49850*
Y178537*
X52037*
X52663Y178225*
X52975Y177600*
X52663Y176975*
X52037Y176663*
X49850*
X52037Y216663D02*
X52663Y216350D01*
X52975Y215725*
X52663Y215100*
X52037Y214787*
X49850*
Y218537*
X52037*
X52663Y218225*
X52975Y217600*
X52663Y216975*
X52037Y216663*
X49850*
X50672Y134613D02*
X50985Y134300D01*
X51609Y133987*
X52235Y134300*
X52547Y134613*
Y137737*
X53172*
X52547D02*
X51297D01*
X50672Y152329D02*
X50985Y152017D01*
X51609Y151704*
X52235Y152017*
X52547Y152329*
Y155454*
X53172*
X52547D02*
X51297D01*
X59237Y76463D02*
X59863Y76150D01*
X60175Y75525*
X59863Y74900*
X59237Y74587*
X57050*
Y78337*
X59237*
X59863Y78025*
X60175Y77400*
X59863Y76775*
X59237Y76463*
X57050*
X59237Y96263D02*
X59863Y95950D01*
X60175Y95325*
X59863Y94700*
X59237Y94387*
X57050*
Y98137*
X59237*
X59863Y97825*
X60175Y97200*
X59863Y96575*
X59237Y96263*
X57050*
X59237Y116063D02*
X59863Y115750D01*
X60175Y115125*
X59863Y114500*
X59237Y114187*
X57050*
Y117937*
X59237*
X59863Y117625*
X60175Y117000*
X59863Y116375*
X59237Y116063*
X57050*
X68150Y126187D02*
Y129937D01*
Y128063D02*
X71275D01*
Y126187D02*
Y129937D01*
X73250Y168587D02*
X74813Y172337D01*
X76375Y168587*
X73875Y170150D02*
X75750D01*
X73250Y178587D02*
X74813Y182337D01*
X76375Y178587*
X73875Y180150D02*
X75750D01*
X73250Y188587D02*
X74813Y192337D01*
X76375Y188587*
X73875Y190150D02*
X75750D01*
X73250Y198587D02*
X74813Y202337D01*
X76375Y198587*
X73875Y200150D02*
X75750D01*
X73250Y208587D02*
X74813Y212337D01*
X76375Y208587*
X73875Y210150D02*
X75750D01*
X73250Y218587D02*
X74813Y222337D01*
X76375Y218587*
X73875Y220150D02*
X75750D01*
X74811Y75181D02*
X76061D01*
X75436D02*
Y78931D01*
X74811D02*
X76061D01*
X74811Y94394D02*
X76061D01*
X75436D02*
Y98144D01*
X74811D02*
X76061D01*
X75650Y126187D02*
Y129937D01*
Y128063D02*
X78775D01*
Y126187D02*
Y129937D01*
X89837Y33263D02*
X90463Y32950D01*
X90775Y32325*
X90463Y31700*
X89837Y31387*
X87650*
Y35137*
X89837*
X90463Y34825*
X90775Y34200*
X90463Y33575*
X89837Y33263*
X87650*
X89837Y48263D02*
X90463Y47950D01*
X90775Y47325*
X90463Y46700*
X89837Y46387*
X87650*
Y50137*
X89837*
X90463Y49825*
X90775Y49200*
X90463Y48575*
X89837Y48263*
X87650*
X92450Y199387D02*
Y203137D01*
Y201263D02*
X93387D01*
X95575Y203137*
X93387Y201263D02*
X95575Y199387D01*
X102411Y91550D02*
X103349D01*
Y91237*
X103037Y90613*
X102724Y90300*
X102099Y89987*
X101474*
X100849Y90300*
X100537Y90613*
X100224Y91237*
Y92487*
X100537Y93113*
X100849Y93425*
X101474Y93737*
X102099*
X102724Y93425*
X103037Y93113*
X103349Y92487*
X102411Y101550D02*
X103349D01*
Y101237*
X103037Y100613*
X102724Y100300*
X102099Y99987*
X101474*
X100849Y100300*
X100537Y100613*
X100224Y101237*
Y102487*
X100537Y103113*
X100849Y103425*
X101474Y103737*
X102099*
X102724Y103425*
X103037Y103113*
X103349Y102487*
X102411Y111550D02*
X103349D01*
Y111237*
X103037Y110613*
X102724Y110300*
X102099Y109987*
X101474*
X100849Y110300*
X100537Y110613*
X100224Y111237*
Y112487*
X100537Y113113*
X100849Y113425*
X101474Y113737*
X102099*
X102724Y113425*
X103037Y113113*
X103349Y112487*
X102411Y121550D02*
X103349D01*
Y121237*
X103037Y120613*
X102724Y120300*
X102099Y119987*
X101474*
X100849Y120300*
X100537Y120613*
X100224Y121237*
Y122487*
X100537Y123113*
X100849Y123425*
X101474Y123737*
X102099*
X102724Y123425*
X103037Y123113*
X103349Y122487*
X102411Y131550D02*
X103349D01*
Y131237*
X103037Y130613*
X102724Y130300*
X102099Y129987*
X101474*
X100849Y130300*
X100537Y130613*
X100224Y131237*
Y132487*
X100537Y133113*
X100849Y133425*
X101474Y133737*
X102099*
X102724Y133425*
X103037Y133113*
X103349Y132487*
X102411Y141550D02*
X103349D01*
Y141237*
X103037Y140613*
X102724Y140300*
X102099Y139987*
X101474*
X100849Y140300*
X100537Y140613*
X100224Y141237*
Y142487*
X100537Y143113*
X100849Y143425*
X101474Y143737*
X102099*
X102724Y143425*
X103037Y143113*
X103349Y142487*
X102411Y151550D02*
X103349D01*
Y151237*
X103037Y150613*
X102724Y150300*
X102099Y149987*
X101474*
X100849Y150300*
X100537Y150613*
X100224Y151237*
Y152487*
X100537Y153113*
X100849Y153425*
X101474Y153737*
X102099*
X102724Y153425*
X103037Y153113*
X103349Y152487*
X102411Y161550D02*
X103349D01*
Y161237*
X103037Y160613*
X102724Y160300*
X102099Y159987*
X101474*
X100849Y160300*
X100537Y160613*
X100224Y161237*
Y162487*
X100537Y163113*
X100849Y163425*
X101474Y163737*
X102099*
X102724Y163425*
X103037Y163113*
X103349Y162487*
X102411Y171550D02*
X103349D01*
Y171237*
X103037Y170613*
X102724Y170300*
X102099Y169987*
X101474*
X100849Y170300*
X100537Y170613*
X100224Y171237*
Y172487*
X100537Y173113*
X100849Y173425*
X101474Y173737*
X102099*
X102724Y173425*
X103037Y173113*
X103349Y172487*
X102411Y181550D02*
X103349D01*
Y181237*
X103037Y180613*
X102724Y180300*
X102099Y179987*
X101474*
X100849Y180300*
X100537Y180613*
X100224Y181237*
Y182487*
X100537Y183113*
X100849Y183425*
X101474Y183737*
X102099*
X102724Y183425*
X103037Y183113*
X103349Y182487*
X102411Y191550D02*
X103349D01*
Y191237*
X103037Y190613*
X102724Y190300*
X102099Y189987*
X101474*
X100849Y190300*
X100537Y190613*
X100224Y191237*
Y192487*
X100537Y193113*
X100849Y193425*
X101474Y193737*
X102099*
X102724Y193425*
X103037Y193113*
X103349Y192487*
X102411Y201550D02*
X103349D01*
Y201237*
X103037Y200613*
X102724Y200300*
X102099Y199987*
X101474*
X100849Y200300*
X100537Y200613*
X100224Y201237*
Y202487*
X100537Y203113*
X100849Y203425*
X101474Y203737*
X102099*
X102724Y203425*
X103037Y203113*
X103349Y202487*
X102411Y211550D02*
X103349D01*
Y211237*
X103037Y210613*
X102724Y210300*
X102099Y209987*
X101474*
X100849Y210300*
X100537Y210613*
X100224Y211237*
Y212487*
X100537Y213113*
X100849Y213425*
X101474Y213737*
X102099*
X102724Y213425*
X103037Y213113*
X103349Y212487*
X102411Y221550D02*
X103349D01*
Y221237*
X103037Y220613*
X102724Y220300*
X102099Y219987*
X101474*
X100849Y220300*
X100537Y220613*
X100224Y221237*
Y222487*
X100537Y223113*
X100849Y223425*
X101474Y223737*
X102099*
X102724Y223425*
X103037Y223113*
X103349Y222487*
X111050Y137587D02*
Y141337D01*
X112613Y139463*
X114175Y141337*
Y137587*
X127250Y54337D02*
Y50587D01*
X130375*
X128050Y19987D02*
X129613Y23737D01*
X131175Y19987*
X128675Y21550D02*
X130550D01*
X133663Y91550D02*
X134601D01*
Y91237*
X134289Y90613*
X133976Y90300*
X133351Y89987*
X132726*
X132101Y90300*
X131789Y90613*
X131476Y91237*
Y92487*
X131789Y93113*
X132101Y93425*
X132726Y93737*
X133351*
X133976Y93425*
X134289Y93113*
X134601Y92487*
X133663Y101550D02*
X134601D01*
Y101237*
X134289Y100613*
X133976Y100300*
X133351Y99987*
X132726*
X132101Y100300*
X131789Y100613*
X131476Y101237*
Y102487*
X131789Y103113*
X132101Y103425*
X132726Y103737*
X133351*
X133976Y103425*
X134289Y103113*
X134601Y102487*
X133663Y111550D02*
X134601D01*
Y111237*
X134289Y110613*
X133976Y110300*
X133351Y109987*
X132726*
X132101Y110300*
X131789Y110613*
X131476Y111237*
Y112487*
X131789Y113113*
X132101Y113425*
X132726Y113737*
X133351*
X133976Y113425*
X134289Y113113*
X134601Y112487*
X133663Y121550D02*
X134601D01*
Y121237*
X134289Y120613*
X133976Y120300*
X133351Y119987*
X132726*
X132101Y120300*
X131789Y120613*
X131476Y121237*
Y122487*
X131789Y123113*
X132101Y123425*
X132726Y123737*
X133351*
X133976Y123425*
X134289Y123113*
X134601Y122487*
X133663Y131550D02*
X134601D01*
Y131237*
X134289Y130613*
X133976Y130300*
X133351Y129987*
X132726*
X132101Y130300*
X131789Y130613*
X131476Y131237*
Y132487*
X131789Y133113*
X132101Y133425*
X132726Y133737*
X133351*
X133976Y133425*
X134289Y133113*
X134601Y132487*
X133663Y141550D02*
X134601D01*
Y141237*
X134289Y140613*
X133976Y140300*
X133351Y139987*
X132726*
X132101Y140300*
X131789Y140613*
X131476Y141237*
Y142487*
X131789Y143113*
X132101Y143425*
X132726Y143737*
X133351*
X133976Y143425*
X134289Y143113*
X134601Y142487*
X133663Y151550D02*
X134601D01*
Y151237*
X134289Y150613*
X133976Y150300*
X133351Y149987*
X132726*
X132101Y150300*
X131789Y150613*
X131476Y151237*
Y152487*
X131789Y153113*
X132101Y153425*
X132726Y153737*
X133351*
X133976Y153425*
X134289Y153113*
X134601Y152487*
X133663Y161550D02*
X134601D01*
Y161237*
X134289Y160613*
X133976Y160300*
X133351Y159987*
X132726*
X132101Y160300*
X131789Y160613*
X131476Y161237*
Y162487*
X131789Y163113*
X132101Y163425*
X132726Y163737*
X133351*
X133976Y163425*
X134289Y163113*
X134601Y162487*
X133663Y171550D02*
X134601D01*
Y171237*
X134289Y170613*
X133976Y170300*
X133351Y169987*
X132726*
X132101Y170300*
X131789Y170613*
X131476Y171237*
Y172487*
X131789Y173113*
X132101Y173425*
X132726Y173737*
X133351*
X133976Y173425*
X134289Y173113*
X134601Y172487*
X133663Y181550D02*
X134601D01*
Y181237*
X134289Y180613*
X133976Y180300*
X133351Y179987*
X132726*
X132101Y180300*
X131789Y180613*
X131476Y181237*
Y182487*
X131789Y183113*
X132101Y183425*
X132726Y183737*
X133351*
X133976Y183425*
X134289Y183113*
X134601Y182487*
X133663Y191550D02*
X134601D01*
Y191237*
X134289Y190613*
X133976Y190300*
X133351Y189987*
X132726*
X132101Y190300*
X131789Y190613*
X131476Y191237*
Y192487*
X131789Y193113*
X132101Y193425*
X132726Y193737*
X133351*
X133976Y193425*
X134289Y193113*
X134601Y192487*
X133663Y201550D02*
X134601D01*
Y201237*
X134289Y200613*
X133976Y200300*
X133351Y199987*
X132726*
X132101Y200300*
X131789Y200613*
X131476Y201237*
Y202487*
X131789Y203113*
X132101Y203425*
X132726Y203737*
X133351*
X133976Y203425*
X134289Y203113*
X134601Y202487*
X133663Y211550D02*
X134601D01*
Y211237*
X134289Y210613*
X133976Y210300*
X133351Y209987*
X132726*
X132101Y210300*
X131789Y210613*
X131476Y211237*
Y212487*
X131789Y213113*
X132101Y213425*
X132726Y213737*
X133351*
X133976Y213425*
X134289Y213113*
X134601Y212487*
X133663Y221550D02*
X134601D01*
Y221237*
X134289Y220613*
X133976Y220300*
X133351Y219987*
X132726*
X132101Y220300*
X131789Y220613*
X131476Y221237*
Y222487*
X131789Y223113*
X132101Y223425*
X132726Y223737*
X133351*
X133976Y223425*
X134289Y223113*
X134601Y222487*
X137250Y54337D02*
Y50587D01*
X140375*
X138050Y19987D02*
X139613Y23737D01*
X141175Y19987*
X138675Y21550D02*
X140550D01*
X145035Y139987D02*
Y143737D01*
X146598Y141863*
X148160Y143737*
Y139987*
X147250Y54337D02*
Y50587D01*
X150375*
X151050Y222187D02*
X152613Y225937D01*
X154175Y222187*
X151675Y223750D02*
X153550D01*
X161050Y222187D02*
X162613Y225937D01*
X164175Y222187*
X161675Y223750D02*
X163550D01*
X166374Y100387D02*
Y104137D01*
X167936Y102263*
X169499Y104137*
Y100387*
X172311Y145163D02*
X172936Y144850D01*
X173249Y144225*
X172936Y143600*
X172311Y143287*
X170124*
Y147037*
X172311*
X172936Y146725*
X173249Y146100*
X172936Y145475*
X172311Y145163*
X170124*
X171050Y222187D02*
X172613Y225937D01*
X174175Y222187*
X171675Y223750D02*
X173550D01*
X184850Y45787D02*
Y49537D01*
X186413Y47663*
X187975Y49537*
Y45787*
X187311Y145163D02*
X187936Y144850D01*
X188249Y144225*
X187936Y143600*
X187311Y143287*
X185124*
Y147037*
X187311*
X187936Y146725*
X188249Y146100*
X187936Y145475*
X187311Y145163*
X185124*
X187311Y179663D02*
X187936Y179350D01*
X188249Y178725*
X187936Y178100*
X187311Y177787*
X185124*
Y181537*
X187311*
X187936Y181225*
X188249Y180600*
X187936Y179975*
X187311Y179663*
X185124*
X187311Y209663D02*
X187936Y209350D01*
X188249Y208725*
X187936Y208100*
X187311Y207787*
X185124*
Y211537*
X187311*
X187936Y211225*
X188249Y210600*
X187936Y209975*
X187311Y209663*
X185124*
X216061Y155163D02*
X216686Y154850D01*
X216999Y154225*
X216686Y153600*
X216061Y153287*
X213874*
Y157037*
X216061*
X216686Y156725*
X216999Y156100*
X216686Y155475*
X216061Y155163*
X213874*
X216061Y179663D02*
X216686Y179350D01*
X216999Y178725*
X216686Y178100*
X216061Y177787*
X213874*
Y181537*
X216061*
X216686Y181225*
X216999Y180600*
X216686Y179975*
X216061Y179663*
X213874*
X216061Y209663D02*
X216686Y209350D01*
X216999Y208725*
X216686Y208100*
X216061Y207787*
X213874*
Y211537*
X216061*
X216686Y211225*
X216999Y210600*
X216686Y209975*
X216061Y209663*
X213874*
X215124Y62037D02*
X216686Y65787D01*
X218249Y62037*
X215749Y63600D02*
X217624D01*
X225124Y62037D02*
X226686Y65787D01*
X228249Y62037*
X225749Y63600D02*
X227624D01*
X231061Y155163D02*
X231686Y154850D01*
X231999Y154225*
X231686Y153600*
X231061Y153287*
X228874*
Y157037*
X231061*
X231686Y156725*
X231999Y156100*
X231686Y155475*
X231061Y155163*
X228874*
D02*
D21*
X17050Y68650D03*
Y88450D03*
Y108250D03*
Y128050D03*
Y145767D03*
X23050Y168850D03*
Y208850D03*
X31474Y25200D03*
Y40200D03*
X39850Y168850D03*
Y208850D03*
X40672Y128050D03*
Y145767D03*
X47050Y68650D03*
Y88450D03*
Y108250D03*
X58150Y120250D03*
X63250Y162650D03*
Y172650D03*
Y182650D03*
Y192650D03*
Y202650D03*
Y212650D03*
X63874Y69244D03*
Y88456D03*
X65650Y120250D03*
X77650Y25450D03*
Y40450D03*
X82450Y193450D03*
X90224Y84050D03*
Y94050D03*
Y104050D03*
Y114050D03*
Y124050D03*
Y134050D03*
Y144050D03*
Y154050D03*
Y164050D03*
Y174050D03*
Y184050D03*
Y194050D03*
Y204050D03*
Y214050D03*
X101050Y131650D03*
X117250Y44650D03*
X118050Y14050D03*
X121476Y84050D03*
Y94050D03*
Y104050D03*
Y114050D03*
Y124050D03*
Y134050D03*
Y144050D03*
Y154050D03*
Y164050D03*
Y174050D03*
Y184050D03*
Y194050D03*
Y204050D03*
Y214050D03*
X127250Y44650D03*
X128050Y14050D03*
X135035Y134050D03*
X137250Y44650D03*
X141050Y216250D03*
X151050D03*
X156374Y94450D03*
X160124Y137350D03*
X161050Y216250D03*
X174850Y39850D03*
X175124Y137350D03*
Y171850D03*
Y201850D03*
X203874Y147350D03*
Y171850D03*
Y201850D03*
X205124Y56100D03*
X215124D03*
X218874Y147350D03*
X0Y0D02*
M02*
