G04 EasyPC Gerber Version 21.0.3 Build 4286 *
G04 #@! TF.Part,Single*
G04 #@! TF.FileFunction,Soldermask,Bot *
G04 #@! TF.FilePolarity,Negative *
%FSLAX35Y35*%
%MOIN*%
G04 #@! TA.AperFunction,ComponentPad*
%ADD95R,0.04600X0.08600*%
%ADD93R,0.05061X0.05061*%
%ADD24R,0.06600X0.06600*%
%ADD106R,0.09399X0.09399*%
%ADD96C,0.04931*%
%ADD94C,0.05061*%
G04 #@! TA.AperFunction,ViaPad*
%ADD99C,0.05400*%
%ADD98C,0.06200*%
G04 #@! TA.AperFunction,WasherPad*
%ADD22C,0.06600*%
G04 #@! TA.AperFunction,ComponentPad*
%ADD97C,0.07600*%
%ADD107C,0.09399*%
X0Y0D02*
D02*
D22*
X17050Y68650D03*
Y88450D03*
Y108250D03*
X23050Y168850D03*
Y208850D03*
X31474Y25200D03*
Y40200D03*
X39850Y168850D03*
Y208850D03*
X47050Y68650D03*
Y88450D03*
Y108250D03*
X77650Y25450D03*
Y40450D03*
X160124Y137350D03*
X175124D03*
Y171850D03*
Y201850D03*
X203874Y147350D03*
Y171850D03*
Y201850D03*
X218874Y147350D03*
D02*
D24*
X63250Y162650D03*
Y172650D03*
Y182650D03*
Y192650D03*
Y202650D03*
Y212650D03*
X118050Y14050D03*
X128050D03*
X141050Y216250D03*
X151050D03*
X161050D03*
X205124Y56100D03*
X215124D03*
D02*
D93*
X90224Y214050D03*
D02*
D94*
Y84050D03*
Y94050D03*
Y104050D03*
Y114050D03*
Y124050D03*
Y134050D03*
Y144050D03*
Y154050D03*
Y164050D03*
Y174050D03*
Y184050D03*
Y194050D03*
Y204050D03*
X121476Y84050D03*
Y94050D03*
Y104050D03*
Y114050D03*
Y124050D03*
Y134050D03*
Y144050D03*
Y154050D03*
Y164050D03*
Y174050D03*
Y184050D03*
Y194050D03*
Y204050D03*
Y214050D03*
D02*
D95*
X58150Y120250D03*
X65650D03*
D02*
D96*
X63874Y69244D03*
Y88456D03*
D02*
D97*
X17050Y128050D03*
Y145767D03*
X40672Y128050D03*
Y145767D03*
D02*
D98*
X174850Y39850D03*
D02*
D99*
X82450Y193450D03*
X101050Y131650D03*
X135035Y134050D03*
X140650Y124050D03*
X156374Y94450D03*
D02*
D106*
X117250Y44650D03*
D02*
D107*
X127250D03*
X137250D03*
X0Y0D02*
M02*
