G04 EasyPC Gerber Version 21.0.3 Build 4286 *
G04 #@! TF.Part,Single*
G04 #@! TF.FileFunction,Copper,L2,Bot *
G04 #@! TF.FilePolarity,Positive *
%FSLAX35Y35*%
%MOIN*%
G04 #@! TA.AperFunction,ComponentPad*
%ADD74R,0.04000X0.08000*%
%ADD72R,0.04461X0.04461*%
%ADD17R,0.06000X0.06000*%
%ADD102R,0.08799X0.08799*%
G04 #@! TD.AperFunction*
%ADD11C,0.00500*%
%ADD12C,0.01000*%
%ADD78C,0.01500*%
%ADD71C,0.02500*%
G04 #@! TA.AperFunction,ComponentPad*
%ADD75C,0.04331*%
%ADD73C,0.04461*%
G04 #@! TA.AperFunction,ViaPad*
%ADD80C,0.04800*%
%ADD79C,0.05600*%
G04 #@! TA.AperFunction,WasherPad*
%ADD15C,0.06000*%
G04 #@! TA.AperFunction,ComponentPad*
%ADD76C,0.07000*%
%ADD103C,0.08799*%
X0Y0D02*
D02*
D11*
X2750Y233951D02*
Y2750D01*
X233951*
Y233951*
X2750*
X11800Y128050D02*
G75*
G02X22300I5250D01*
G01*
G75*
G02X11800I-5250*
G01*
X12300Y68650D02*
G75*
G02X21800I4750D01*
G01*
G75*
G02X12300I-4750*
G01*
Y88450D02*
G75*
G02X21800I4750D01*
G01*
G75*
G02X12300I-4750*
G01*
Y108250D02*
G75*
G02X21800I4750D01*
G01*
G75*
G02X12300I-4750*
G01*
Y145767D02*
G75*
G02X21800I4750D01*
G01*
G75*
G02X12300I-4750*
G01*
X18800Y168850D02*
G75*
G02X27300I4250D01*
G01*
G75*
G02X18800I-4250*
G01*
X26724Y25200D02*
G75*
G02X36224I4750D01*
G01*
G75*
G02X26724I-4750*
G01*
X227618Y132194D02*
G75*
G02X228350Y130426I-1768J-1768D01*
G01*
Y48600*
G75*
G02X227618Y46832I-2500*
G01*
X218868Y38082*
G75*
G02X217098Y37350I-1768J1768*
G01*
X178036*
G75*
G02X171664I-3186J2500*
G01*
X162085*
X155018Y30282*
G75*
G02X153248Y29550I-1768J1768*
G01*
X119750*
Y18301*
X122301*
Y9801*
X113801*
Y18301*
X114750*
Y39002*
X111600*
Y42750*
X83485*
X81848Y41113*
G75*
G02X81900Y40450I-4199J-663*
G01*
G75*
G02X73400I-4250*
G01*
G75*
G02X78313Y44648I4250*
G01*
X80682Y47018*
G75*
G02X82452Y47750I1768J-1768*
G01*
X111600*
Y50301*
X122900*
Y48996*
G75*
G02X132545Y47778I4350J-4346*
G01*
G75*
G02X132996Y48368I4704J-3130*
G01*
X130215Y51150*
X46535*
X35721Y40336*
G75*
G02X35724Y40200I-4246J-142*
G01*
G75*
G02X27224I-4250*
G01*
G75*
G02X28816Y43517I4250*
G01*
Y206350*
X26487*
G75*
G02X18800Y208850I-3437J2500*
G01*
G75*
G02X26487Y211350I4250*
G01*
X30572*
G75*
G02X32375I901J-2500*
G01*
X36413*
G75*
G02X44100Y208850I3437J-2500*
G01*
G75*
G02X36413Y206350I-4250*
G01*
X34131*
Y45817*
X43732Y55418*
G75*
G02X45502Y56150I1768J-1768*
G01*
X131248*
G75*
G02X133018Y55418I2J-2500*
G01*
X138220Y50216*
G75*
G02X137250Y39000I-970J-5566*
G01*
G75*
G02X132545Y41522J5650*
G01*
G75*
G02X122900Y40304I-5295J3128*
G01*
Y39002*
X119750*
Y34550*
X152215*
X159282Y41618*
G75*
G02X161052Y42350I1768J-1768*
G01*
X171664*
G75*
G02X178036I3186J-2500*
G01*
X216065*
X223350Y49635*
Y129391*
X217891Y134850*
X178561*
G75*
G02X170874Y137350I-3437J2500*
G01*
G75*
G02X172624Y140787I4250*
G01*
Y168413*
G75*
G02X171018Y172947I2500J3437*
G01*
X149282Y194682*
G75*
G02X148550Y196450I1768J1768*
G01*
Y212000*
X146801*
Y220500*
X155301*
Y212000*
X153550*
Y197485*
X174939Y176096*
G75*
G02X177624Y168413I184J-4246*
G01*
Y140787*
G75*
G02X178561Y139850I-2500J-3437*
G01*
X218924*
G75*
G02X220694Y139118I2J-2500*
G01*
X227618Y132194*
X35422Y128050D02*
G75*
G02X45922I5250D01*
G01*
G75*
G02X35422I-5250*
G01*
X42800Y68650D02*
G75*
G02X51300I4250D01*
G01*
G75*
G02X42800I-4250*
G01*
Y88450D02*
G75*
G02X51300I4250D01*
G01*
G75*
G02X42800I-4250*
G01*
Y108250D02*
G75*
G02X51300I4250D01*
G01*
G75*
G02X42800I-4250*
G01*
X35600Y168850D02*
G75*
G02X44100I4250D01*
G01*
G75*
G02X35600I-4250*
G01*
X35922Y145767D02*
G75*
G02X45422I4750D01*
G01*
G75*
G02X35922I-4750*
G01*
X200872Y60348D02*
X209372D01*
Y51848*
X200872*
Y60348*
X210872D02*
X219372D01*
Y51848*
X210872*
Y60348*
X155374Y137350D02*
G75*
G02X164874I4750D01*
G01*
G75*
G02X155374I-4750*
G01*
X123301Y18801D02*
X132801D01*
Y9301*
X123301*
Y18801*
X72900Y25450D02*
G75*
G02X82400I4750D01*
G01*
G75*
G02X72900I-4750*
G01*
X54900Y125500D02*
X61400D01*
Y115000*
X54900*
Y125500*
X60458Y69244D02*
G75*
G02X67289I3415D01*
G01*
G75*
G02X60458I-3415*
G01*
Y88456D02*
G75*
G02X67289I3415D01*
G01*
G75*
G02X60458I-3415*
G01*
X58500Y187400D02*
X68000D01*
Y177900*
X58500*
Y187400*
X59000Y166900D02*
X67500D01*
Y158400*
X59000*
Y166900*
X61900Y126000D02*
X69400D01*
Y114500*
X61900*
Y126000*
X59000Y176900D02*
X67500D01*
Y168400*
X59000*
Y176900*
Y196900D02*
X67500D01*
Y188400*
X59000*
Y196900*
Y206900D02*
X67500D01*
Y198400*
X59000*
Y206900*
X86744Y204050D02*
G75*
G02X93704I3480D01*
G01*
G75*
G02X90224Y200570I-3480*
G01*
G75*
G02X89624Y200622I-1J3481*
G01*
X85032Y196030*
G75*
G02X86100Y193450I-2582J-2580*
G01*
G75*
G02X79050Y192122I-3650*
G01*
Y110428*
X83428Y106050*
X87376*
G75*
G02X93704Y104050I2848J-2000*
G01*
G75*
G02X87376Y102050I-3480J0*
G01*
X82600*
G75*
G02X81184Y102637J2000*
G01*
X75637Y108184*
G75*
G02X75050Y109600I1413J1416*
G01*
Y205222*
X69622Y210650*
X67500*
Y208400*
X59000*
Y216900*
X67500*
Y214650*
X70450*
G75*
G02X71866Y214063J-2000*
G01*
X78463Y207466*
G75*
G02X79050Y206050I-1413J-1416*
G01*
Y194778*
G75*
G02X80464Y196513I3400J-1328*
G01*
G75*
G02X81037Y197692I1985J-236*
G01*
X86796Y203450*
G75*
G02X86744Y204050I3430J599*
G01*
X86244Y144050D02*
G75*
G02X94204I3980D01*
G01*
G75*
G02X86244I-3980*
G01*
X86744Y114050D02*
G75*
G02X93704I3480D01*
G01*
G75*
G02X86744I-3480*
G01*
Y124050D02*
G75*
G02X93704I3480D01*
G01*
G75*
G02X86744I-3480*
G01*
Y134050D02*
G75*
G02X93704I3480D01*
G01*
G75*
G02X86744I-3480*
G01*
Y154050D02*
G75*
G02X93704I3480D01*
G01*
G75*
G02X86744I-3480*
G01*
X136801Y220500D02*
X145301D01*
Y212000*
X136801*
Y212912*
X131142Y208123*
G75*
G02X129849Y207650I-1292J1526*
G01*
X111678*
X107850Y203822*
Y86928*
X108728Y86050*
X118628*
G75*
G02X124956Y84050I2848J-2000*
G01*
G75*
G02X118628Y82050I-3480J0*
G01*
X107900*
G75*
G02X106484Y82637J2000*
G01*
X104437Y84684*
G75*
G02X103850Y86100I1413J1416*
G01*
Y129309*
G75*
G02X97400Y131650I-2800J2341*
G01*
G75*
G02X99050Y134703I3650*
G01*
Y151822*
X90301Y160570*
G75*
G02X90224Y160570I-74J3486*
G01*
G75*
G02Y167530J3480*
G01*
G75*
G02X93539Y162990J-3480*
G01*
X102463Y154066*
G75*
G02X103050Y152650I-1413J-1416*
G01*
Y134703*
G75*
G02X103850Y133991I-2000J-3053*
G01*
Y204650*
G75*
G02X104437Y206066I2000*
G01*
X109434Y211063*
G75*
G02X110850Y211650I1416J-1413*
G01*
X118956*
G75*
G02X121476Y217530I2520J2400*
G01*
G75*
G02X123996Y211650J-3480*
G01*
X129117*
X136358Y217777*
G75*
G02X136801Y218061I1292J-1526*
G01*
Y220500*
X117496Y144050D02*
G75*
G02X125456I3980D01*
G01*
G75*
G02X117496I-3980*
G01*
X152852Y96450D02*
G75*
G02X160424Y94450I3522J-2000D01*
G01*
G75*
G02X152852Y92450I-4050*
G01*
X124567*
G75*
G02X117996Y94050I-3091J1600*
G01*
G75*
G02X123996Y96450I3480*
G01*
X152852*
X117996Y104050D02*
G75*
G02X124956I3480D01*
G01*
G75*
G02X117996I-3480*
G01*
Y114050D02*
G75*
G02X124956I3480D01*
G01*
G75*
G02X117996I-3480*
G01*
Y124050D02*
G75*
G02X124956I3480D01*
G01*
G75*
G02X117996I-3480*
G01*
X131513Y136050D02*
G75*
G02X139085Y134050I3522J-2000D01*
G01*
G75*
G02X131513Y132050I-4050*
G01*
X124324*
G75*
G02X117996Y134050I-2848J2000*
G01*
G75*
G02X124324Y136050I3480J0*
G01*
X131513*
X117496Y154050D02*
G75*
G02X125456I3980D01*
G01*
G75*
G02X117496I-3980*
G01*
X117996Y164050D02*
G75*
G02X124956I3480D01*
G01*
G75*
G02X117996I-3480*
G01*
Y174050D02*
G75*
G02X124956I3480D01*
G01*
G75*
G02X117996I-3480*
G01*
Y184050D02*
G75*
G02X124956I3480D01*
G01*
G75*
G02X117996I-3480*
G01*
Y194050D02*
G75*
G02X124956I3480D01*
G01*
G75*
G02X117996I-3480*
G01*
Y204050D02*
G75*
G02X124956I3480D01*
G01*
G75*
G02X117996I-3480*
G01*
X86744Y174050D02*
G75*
G02X93704I3480D01*
G01*
G75*
G02X86744I-3480*
G01*
Y184050D02*
G75*
G02X93704I3480D01*
G01*
G75*
G02X86744I-3480*
G01*
Y194050D02*
G75*
G02X93704I3480D01*
G01*
G75*
G02X86744I-3480*
G01*
Y84050D02*
G75*
G02X93704I3480D01*
G01*
G75*
G02X86744I-3480*
G01*
Y94050D02*
G75*
G02X93704I3480D01*
G01*
G75*
G02X86744I-3480*
G01*
X86742Y217530D02*
X93703D01*
Y210569*
X86742*
Y217530*
X156301Y221000D02*
X165801D01*
Y211500*
X156301*
Y221000*
X170374Y201850D02*
G75*
G02X179874I4750D01*
G01*
G75*
G02X170374I-4750*
G01*
X199124D02*
G75*
G02X208624I4750D01*
G01*
G75*
G02X199124I-4750*
G01*
X199624Y147350D02*
G75*
G02X208124I4250D01*
G01*
G75*
G02X199624I-4250*
G01*
Y171850D02*
G75*
G02X208124I4250D01*
G01*
G75*
G02X199624I-4250*
G01*
X214124Y147350D02*
G75*
G02X223624I4750D01*
G01*
G75*
G02X214124I-4750*
G01*
X132801Y14051D02*
G36*
Y9301D01*
X123301*
Y14051*
X122301*
Y9801*
X113801*
Y14051*
X3000*
Y3000*
X233701*
Y14051*
X132801*
G37*
X113801D02*
G36*
Y18301D01*
X114750*
Y25200*
X82393*
G75*
G02X72907I-4743J250*
G01*
X36224*
G75*
G02X26724I-4750*
G01*
X3000*
Y14051*
X113801*
G37*
X122301D02*
G36*
X123301D01*
Y18801*
X132801*
Y14051*
X233701*
Y25200*
X119750*
Y18301*
X122301*
Y14051*
G37*
X114750Y25200D02*
G36*
Y39002D01*
X111600*
Y42750*
X83485*
X81848Y41113*
G75*
G02X81900Y40450I-4193J-662*
G01*
Y40450*
G75*
G02X73400I-4250*
G01*
Y40450*
G75*
G02X78313Y44648I4250*
G01*
X80682Y47018*
G75*
G02X82452Y47750I1767J-1767*
G01*
X111600*
Y50301*
X122900*
Y48996*
G75*
G02X132545Y47778I4350J-4346*
G01*
G75*
G02X132996Y48368I4717J-3139*
G01*
X130215Y51150*
X46535*
X35721Y40336*
G75*
G02X35724Y40200I-5811J-169*
G01*
G75*
G02X27224I-4250*
G01*
G75*
G02X28816Y43517I4252J-1*
G01*
Y56098*
X3000*
Y25200*
X26724*
G75*
G02X36224I4750*
G01*
X72907*
G75*
G02X72900Y25450I4745J252*
G01*
G75*
G02X82400I4750*
G01*
G75*
G02X82393Y25200I-4752J2*
G01*
X114750*
G37*
X44994Y56098D02*
G36*
X34131D01*
Y45817*
X43732Y55418*
G75*
G02X44994Y56098I1767J-1767*
G01*
G37*
X228350D02*
G36*
Y48600D01*
G75*
G02Y48599I-2820J0*
G01*
G75*
G02X227618Y46832I-2498*
G01*
X218868Y38082*
G75*
G02X217098Y37350I-1767J1767*
G01*
X178036*
G75*
G02X171664I-3186J2500*
G01*
X162085*
X155018Y30282*
G75*
G02X153248Y29550I-1767J1767*
G01*
X119750*
Y25200*
X233701*
Y56098*
X228350*
G37*
X223350D02*
G36*
X219372D01*
Y51848*
X210872*
Y56098*
X209372*
Y51848*
X200872*
Y56098*
X131756*
G75*
G02X133018Y55418I-505J-2447*
G01*
X138220Y50216*
G75*
G02X142900Y44650I-970J-5566*
G01*
G75*
G02X137250Y39000I-5650*
G01*
G75*
G02X132545Y41522I-1J5648*
G01*
G75*
G02X122900Y40304I-5295J3127*
G01*
Y39002*
X119750*
Y34550*
X152215*
X159282Y41618*
G75*
G02X161052Y42350I1767J-1767*
G01*
X171664*
G75*
G02X178036I3186J-2500*
G01*
X216065*
X223350Y49635*
Y56098*
G37*
X28816Y68650D02*
G36*
X21800D01*
G75*
G02X12300I-4750*
G01*
X3000*
Y56098*
X28816*
Y68650*
G37*
X223350D02*
G36*
X67237D01*
G75*
G02X60510I-3363J594*
G01*
X51300*
G75*
G02X42800I-4250*
G01*
X34131*
Y56098*
X44994*
G75*
G02X45502Y56150I505J-2448*
G01*
X131248*
G75*
G02X131756Y56098I3J-2500*
G01*
X200872*
Y60348*
X209372*
Y56098*
X210872*
Y60348*
X219372*
Y56098*
X223350*
Y68650*
G37*
X228350D02*
G36*
Y56098D01*
X233701*
Y68650*
X228350*
G37*
X28816Y84050D02*
G36*
X18839D01*
G75*
G02X15261I-1789J4400*
G01*
X3000*
Y68650*
X12300*
G75*
G02X21800I4750*
G01*
X28816*
Y84050*
G37*
X223350D02*
G36*
X124956D01*
G75*
G02X118628Y82050I-3480J0*
G01*
X107900*
G75*
G02X106484Y82637J2000*
G01*
X105072Y84050*
X93704*
G75*
G02X86744I-3480*
G01*
X34131*
Y68650*
X42800*
G75*
G02X51300I4250*
G01*
X60510*
G75*
G02X60458Y69244I3364J594*
G01*
G75*
G02X67289I3415*
G01*
G75*
G02X67237Y68650I-3416*
G01*
X223350*
Y84050*
G37*
X228350D02*
G36*
Y68650D01*
X233701*
Y84050*
X228350*
G37*
X12300Y88450D02*
G36*
X3000D01*
Y84050*
X15261*
G75*
G02X12300Y88450I1789J4400*
G01*
G37*
X28816D02*
G36*
X21800D01*
G75*
G02X18839Y84050I-4750*
G01*
X28816*
Y88450*
G37*
X105072Y84050D02*
G36*
X104437Y84684D01*
G75*
G02X103850Y86100I1413J1416*
G01*
Y88450*
X67289*
G75*
G02X60458I-3415J6*
G01*
X51300*
G75*
G02X42800I-4250*
G01*
X34131*
Y84050*
X86744*
G75*
G02X93704I3480*
G01*
X105072*
G37*
X223350Y88450D02*
G36*
X107850D01*
Y86928*
X108728Y86050*
X118628*
G75*
G02X124956Y84050I2848J-2000*
G01*
X223350*
Y88450*
G37*
X228350D02*
G36*
Y84050D01*
X233701*
Y88450*
X228350*
G37*
X28816Y94450D02*
G36*
X3000D01*
Y88450*
X12300*
G75*
G02X21800I4750*
G01*
X28816*
Y94450*
G37*
X103850D02*
G36*
X93681D01*
G75*
G02X93704Y94050I-3457J-402*
G01*
G75*
G02X86744I-3480*
G01*
G75*
G02X86767Y94450I3481J-2*
G01*
X34131*
Y88450*
X42800*
G75*
G02X51300I4250*
G01*
X60458*
G75*
G02Y88456I3437J3*
G01*
G75*
G02X67289I3415*
G01*
G75*
G02Y88450I-3437J-3*
G01*
X103850*
Y94450*
G37*
X223350D02*
G36*
X160424D01*
G75*
G02X152852Y92450I-4050*
G01*
X124567*
G75*
G02X117996Y94050I-3091J1600*
G01*
G75*
G02X118019Y94450I3482J-2*
G01*
X107850*
Y88450*
X223350*
Y94450*
G37*
X228350D02*
G36*
Y88450D01*
X233701*
Y94450*
X228350*
G37*
X28816Y104050D02*
G36*
X19269D01*
G75*
G02X14831I-2219J4200*
G01*
X3000*
Y94450*
X28816*
Y104050*
G37*
X103850D02*
G36*
X93704D01*
G75*
G02X87376Y102050I-3480J0*
G01*
X82600*
G75*
G02X81184Y102637J2000*
G01*
X79772Y104050*
X47700*
G75*
G02X46400I-650J4200*
G01*
X34131*
Y94450*
X86767*
G75*
G02X93681I3457J-400*
G01*
X103850*
Y104050*
G37*
X223350D02*
G36*
X124956D01*
G75*
G02X117996I-3480*
G01*
X107850*
Y94450*
X118019*
G75*
G02X123996Y96450I3457J-400*
G01*
X152852*
G75*
G02X160424Y94450I3522J-2000*
G01*
X223350*
Y104050*
G37*
X228350D02*
G36*
Y94450D01*
X233701*
Y104050*
X228350*
G37*
X12300Y108250D02*
G36*
X3000D01*
Y104050*
X14831*
G75*
G02X12300Y108250I2219J4200*
G01*
G37*
X28816D02*
G36*
X21800D01*
G75*
G02X19269Y104050I-4750*
G01*
X28816*
Y108250*
G37*
X42800D02*
G36*
X34131D01*
Y104050*
X46400*
G75*
G02X42800Y108250I650J4200*
G01*
G37*
X79772Y104050D02*
G36*
X75637Y108184D01*
G75*
G02X75574Y108250I1413J1417*
G01*
X51300*
G75*
G02X47700Y104050I-4250*
G01*
X79772*
G37*
X103850Y108250D02*
G36*
X81228D01*
X83428Y106050*
X87376*
G75*
G02X93704Y104050I2848J-2000*
G01*
X103850*
Y108250*
G37*
X223350D02*
G36*
X107850D01*
Y104050*
X117996*
G75*
G02X124956I3480*
G01*
X223350*
Y108250*
G37*
X228350D02*
G36*
Y104050D01*
X233701*
Y108250*
X228350*
G37*
X28816Y114050D02*
G36*
X3000D01*
Y108250*
X12300*
G75*
G02X21800I4750*
G01*
X28816*
Y114050*
G37*
X75574Y108250D02*
G36*
G75*
G02X75050Y109600I1476J1350D01*
G01*
Y114050*
X34131*
Y108250*
X42800*
G75*
G02X51300I4250*
G01*
X75574*
G37*
X103850Y114050D02*
G36*
X93704D01*
G75*
G02X86744I-3480*
G01*
X79050*
Y110428*
X81228Y108250*
X103850*
Y114050*
G37*
X223350D02*
G36*
X124956D01*
G75*
G02X117996I-3480*
G01*
X107850*
Y108250*
X223350*
Y114050*
G37*
X228350D02*
G36*
Y108250D01*
X233701*
Y114050*
X228350*
G37*
X28816Y120250D02*
G36*
X3000D01*
Y114050*
X28816*
Y120250*
G37*
X75050D02*
G36*
X69400D01*
Y114500*
X61900*
Y120250*
X61400*
Y115000*
X54900*
Y120250*
X34131*
Y114050*
X75050*
Y120250*
G37*
X103850D02*
G36*
X79050D01*
Y114050*
X86744*
G75*
G02X93704I3480*
G01*
X103850*
Y120250*
G37*
X223350D02*
G36*
X107850D01*
Y114050*
X117996*
G75*
G02X124956I3480*
G01*
X223350*
Y120250*
G37*
X228350D02*
G36*
Y114050D01*
X233701*
Y120250*
X228350*
G37*
X28816Y124050D02*
G36*
X20450D01*
G75*
G02X13650I-3400J4000*
G01*
X3000*
Y120250*
X28816*
Y124050*
G37*
X54900D02*
G36*
X44072D01*
G75*
G02X37272I-3400J4000*
G01*
X34131*
Y120250*
X54900*
Y124050*
G37*
X61900D02*
G36*
X61400D01*
Y120250*
X61900*
Y124050*
G37*
X75050D02*
G36*
X69400D01*
Y120250*
X75050*
Y124050*
G37*
X103850D02*
G36*
X93704D01*
G75*
G02X86744I-3480*
G01*
X79050*
Y120250*
X103850*
Y124050*
G37*
X223350D02*
G36*
X124956D01*
G75*
G02X117996I-3480*
G01*
X107850*
Y120250*
X223350*
Y124050*
G37*
X228350D02*
G36*
Y120250D01*
X233701*
Y124050*
X228350*
G37*
X11800Y128050D02*
G36*
X3000D01*
Y124050*
X13650*
G75*
G02X11800Y128050I3400J4000*
G01*
G37*
X28816D02*
G36*
X22300D01*
G75*
G02X20450Y124050I-5250*
G01*
X28816*
Y128050*
G37*
X35422D02*
G36*
X34131D01*
Y124050*
X37272*
G75*
G02X35422Y128050I3400J4000*
G01*
G37*
X75050D02*
G36*
X45922D01*
G75*
G02X44072Y124050I-5250*
G01*
X54900*
Y125500*
X61400*
Y124050*
X61900*
Y126000*
X69400*
Y124050*
X75050*
Y128050*
G37*
X103850D02*
G36*
X101650D01*
G75*
G02X100450I-600J3600*
G01*
X79050*
Y124050*
X86744*
G75*
G02X93704I3480*
G01*
X103850*
Y128050*
G37*
X223350D02*
G36*
X107850D01*
Y124050*
X117996*
G75*
G02X124956I3480*
G01*
X223350*
Y128050*
G37*
X228350D02*
G36*
Y124050D01*
X233701*
Y128050*
X228350*
G37*
X28816Y134050D02*
G36*
X3000D01*
Y128050*
X11800*
G75*
G02X22300I5250*
G01*
X28816*
Y134050*
G37*
X75050D02*
G36*
X34131D01*
Y128050*
X35422*
G75*
G02X45922I5250*
G01*
X75050*
Y134050*
G37*
X98300D02*
G36*
X93704D01*
G75*
G02X86744I-3480*
G01*
X79050*
Y128050*
X100450*
G75*
G02X97400Y131650I600J3600*
G01*
G75*
G02X98300Y134050I3651J-1*
G01*
G37*
X103850Y128050D02*
G36*
Y129309D01*
G75*
G02X101650Y128050I-2800J2342*
G01*
X103850*
G37*
Y134050D02*
G36*
X103800D01*
G75*
G02X103850Y133991I-2743J-2389*
G01*
Y134050*
G37*
X223350Y128050D02*
G36*
Y129391D01*
X218691Y134050*
X177802*
G75*
G02X172445I-2678J3300*
G01*
X163540*
G75*
G02X156707I-3417J3300*
G01*
X139085*
G75*
G02X131513Y132050I-4050*
G01*
X124324*
G75*
G02X117996Y134050I-2848J2000*
G01*
X107850*
Y128050*
X223350*
G37*
X228350D02*
G36*
X233701D01*
Y134050*
X225762*
X227618Y132194*
G75*
G02X228350Y130427I-1766J-1767*
G01*
G75*
G02Y130426I-2820J0*
G01*
Y128050*
G37*
X28816Y137350D02*
G36*
X3000D01*
Y134050*
X28816*
Y137350*
G37*
X75050D02*
G36*
X34131D01*
Y134050*
X75050*
Y137350*
G37*
X86744Y134050D02*
G36*
G75*
G02X89118Y137350I3480D01*
G01*
X79050*
Y134050*
X86744*
G37*
X98300D02*
G36*
G75*
G02X99050Y134703I2751J-2400D01*
G01*
Y137350*
X91330*
G75*
G02X93704Y134050I-1106J-3300*
G01*
X98300*
G37*
X103850Y137350D02*
G36*
X103050D01*
Y134703*
G75*
G02X103800Y134050I-1993J-3046*
G01*
X103850*
Y137350*
G37*
X117996Y134050D02*
G36*
G75*
G02X120371Y137350I3481J0D01*
G01*
X107850*
Y134050*
X117996*
G37*
X132687Y137350D02*
G36*
X122581D01*
G75*
G02X124324Y136050I-1106J-3300*
G01*
X131513*
G75*
G02X132687Y137350I3522J-2000*
G01*
G37*
X155374D02*
G36*
X137383D01*
G75*
G02X139085Y134050I-2348J-3300*
G01*
X156707*
G75*
G02X155374Y137350I3417J3300*
G01*
G37*
X170874D02*
G36*
X164874D01*
G75*
G02X163540Y134050I-4750*
G01*
X172445*
G75*
G02X170874Y137350I2678J3300*
G01*
G37*
X218691Y134050D02*
G36*
X217891Y134850D01*
X178561*
G75*
G02X177802Y134050I-3437J2500*
G01*
X218691*
G37*
X225762D02*
G36*
X233701D01*
Y137350*
X222462*
X225762Y134050*
G37*
X28816Y145767D02*
G36*
X21800D01*
G75*
G02X12300I-4750*
G01*
X3000*
Y137350*
X28816*
Y145767*
G37*
X75050D02*
G36*
X45422D01*
G75*
G02X35922I-4750*
G01*
X34131*
Y137350*
X75050*
Y145767*
G37*
X99050D02*
G36*
X93815D01*
G75*
G02X94204Y144050I-3591J-1716*
G01*
G75*
G02X86244I-3980*
G01*
G75*
G02X86633Y145767I3980J0*
G01*
X79050*
Y137350*
X89118*
G75*
G02X91330I1106J-3301*
G01*
X99050*
Y145767*
G37*
X103850D02*
G36*
X103050D01*
Y137350*
X103850*
Y145767*
G37*
X170874Y137350D02*
G36*
G75*
G02X172624Y140787I4250D01*
G01*
Y145767*
X125067*
G75*
G02X125456Y144050I-3591J-1716*
G01*
G75*
G02X117496I-3980*
G01*
G75*
G02X117885Y145767I3980J0*
G01*
X107850*
Y137350*
X120371*
G75*
G02X122581I1106J-3300*
G01*
X132687*
G75*
G02X137383I2348J-3300*
G01*
X155374*
G75*
G02X164874I4750*
G01*
X170874*
G37*
X222462D02*
G36*
X233701D01*
Y145767*
X223352*
G75*
G02X214395I-4478J1583*
G01*
X207818*
G75*
G02X199930I-3944J1583*
G01*
X177624*
Y140787*
G75*
G02X178561Y139850I-2511J-3448*
G01*
X218924*
G75*
G02X220694Y139118I3J-2499*
G01*
X222462Y137350*
G37*
X28816Y154050D02*
G36*
X3000D01*
Y145767*
X12300*
G75*
G02X21800I4750*
G01*
X28816*
Y154050*
G37*
X75050D02*
G36*
X34131D01*
Y145767*
X35922*
G75*
G02X45422I4750*
G01*
X75050*
Y154050*
G37*
X99050Y145767D02*
G36*
Y151822D01*
X96822Y154050*
X93704*
G75*
G02X86744I-3480*
G01*
X79050*
Y145767*
X86633*
G75*
G02X93815I3591J-1717*
G01*
X99050*
G37*
X103850Y154050D02*
G36*
X102478D01*
G75*
G02X103050Y152650I-1428J-1400*
G01*
Y145767*
X103850*
Y154050*
G37*
X172624D02*
G36*
X125456D01*
G75*
G02X117496I-3980*
G01*
X107850*
Y145767*
X117885*
G75*
G02X125067I3591J-1717*
G01*
X172624*
Y154050*
G37*
X177624D02*
G36*
Y145767D01*
X199930*
G75*
G02X199624Y147350I3944J1583*
G01*
G75*
G02X208124I4250*
G01*
G75*
G02X207818Y145767I-4250J0*
G01*
X214395*
G75*
G02X214124Y147350I4478J1583*
G01*
G75*
G02X223624I4750*
G01*
G75*
G02X223352Y145767I-4750*
G01*
X233701*
Y154050*
X177624*
G37*
X28816Y162650D02*
G36*
X3000D01*
Y154050*
X28816*
Y162650*
G37*
X75050D02*
G36*
X67500D01*
Y158400*
X59000*
Y162650*
X34131*
Y154050*
X75050*
Y162650*
G37*
X96822Y154050D02*
G36*
X90301Y160570D01*
G75*
G02X90224Y160570I-58J1891*
G01*
G75*
G02X87038Y162650J3480*
G01*
X79050*
Y154050*
X86744*
G75*
G02X93704I3480*
G01*
X96822*
G37*
X103850Y162650D02*
G36*
X93879D01*
X102463Y154066*
G75*
G02X102478Y154050I-1413J-1429*
G01*
X103850*
Y162650*
G37*
X172624D02*
G36*
X124662D01*
G75*
G02X118290I-3186J1400*
G01*
X107850*
Y154050*
X117496*
G75*
G02X125456I3980*
G01*
X172624*
Y162650*
G37*
X177624D02*
G36*
Y154050D01*
X233701*
Y162650*
X177624*
G37*
X28816Y168850D02*
G36*
X27300D01*
G75*
G02X18800I-4250*
G01*
X3000*
Y162650*
X28816*
Y168850*
G37*
X75050D02*
G36*
X67500D01*
Y168400*
X59000*
Y168850*
X44100*
G75*
G02X35600I-4250*
G01*
X34131*
Y162650*
X59000*
Y166900*
X67500*
Y162650*
X75050*
Y168850*
G37*
X103850D02*
G36*
X79050D01*
Y162650*
X87038*
G75*
G02X86744Y164050I3186J1400*
G01*
G75*
G02X90224Y167530I3480*
G01*
G75*
G02X93704Y164050J-3480*
G01*
G75*
G02X93539Y162990I-3481J0*
G01*
X93879Y162650*
X103850*
Y168850*
G37*
X172113D02*
G36*
X107850D01*
Y162650*
X118290*
G75*
G02X117996Y164050I3186J1400*
G01*
G75*
G02X124956I3480*
G01*
G75*
G02X124662Y162650I-3480*
G01*
X172624*
Y168413*
G75*
G02X172113Y168850I2501J3436*
G01*
G37*
X206884D02*
G36*
G75*
G02X200863I-3010J3000D01*
G01*
X178134*
G75*
G02X177624Y168413I-3011J3001*
G01*
Y162650*
X233701*
Y168850*
X206884*
G37*
X28816Y174050D02*
G36*
X3000D01*
Y168850*
X18800*
G75*
G02X27300I4250*
G01*
X28816*
Y174050*
G37*
X59000D02*
G36*
X34131D01*
Y168850*
X35600*
G75*
G02X44100I4250*
G01*
X59000*
Y174050*
G37*
X75050D02*
G36*
X67500D01*
Y168850*
X75050*
Y174050*
G37*
X103850D02*
G36*
X93704D01*
G75*
G02X86744I-3480*
G01*
X79050*
Y168850*
X103850*
Y174050*
G37*
X169915D02*
G36*
X124956D01*
G75*
G02X117996I-3480*
G01*
X107850*
Y168850*
X172113*
G75*
G02X170874Y171850I3011J3000*
G01*
G75*
G02X171018Y172947I4250J0*
G01*
X169915Y174050*
G37*
X200237D02*
G36*
X178760D01*
G75*
G02X179374Y171850I-3636J-2200*
G01*
G75*
G02X178134Y168850I-4250*
G01*
X200863*
G75*
G02X199624Y171850I3010J3000*
G01*
G75*
G02X200237Y174050I4250*
G01*
G37*
X207510D02*
G36*
G75*
G02X208124Y171850I-3636J-2200D01*
G01*
G75*
G02X206884Y168850I-4250J0*
G01*
X233701*
Y174050*
X207510*
G37*
X28816Y182650D02*
G36*
X3000D01*
Y174050*
X28816*
Y182650*
G37*
X75050D02*
G36*
X68000D01*
Y177900*
X58500*
Y182650*
X34131*
Y174050*
X59000*
Y176900*
X67500*
Y174050*
X75050*
Y182650*
G37*
X103850D02*
G36*
X93410D01*
G75*
G02X87038I-3186J1400*
G01*
X79050*
Y174050*
X86744*
G75*
G02X93704I3480*
G01*
X103850*
Y182650*
G37*
X169915Y174050D02*
G36*
X161315Y182650D01*
X124662*
G75*
G02X118290I-3186J1400*
G01*
X107850*
Y174050*
X117996*
G75*
G02X124956I3480*
G01*
X169915*
G37*
X178760D02*
G36*
X200237D01*
G75*
G02X207510I3636J-2200*
G01*
X233701*
Y182650*
X168386*
X174939Y176096*
G75*
G02X178760Y174050I184J-4246*
G01*
G37*
X28816Y192650D02*
G36*
X3000D01*
Y182650*
X28816*
Y192650*
G37*
X75050D02*
G36*
X67500D01*
Y188400*
X59000*
Y192650*
X34131*
Y182650*
X58500*
Y187400*
X68000*
Y182650*
X75050*
Y192650*
G37*
X103850D02*
G36*
X93410D01*
G75*
G02X87038I-3186J1400*
G01*
X86011*
G75*
G02X79050Y192122I-3561J800*
G01*
Y182650*
X87038*
G75*
G02X86744Y184050I3186J1400*
G01*
G75*
G02X93704I3480*
G01*
G75*
G02X93410Y182650I-3480*
G01*
X103850*
Y192650*
G37*
X161315Y182650D02*
G36*
X151315Y192650D01*
X124662*
G75*
G02X118290I-3186J1400*
G01*
X107850*
Y182650*
X118290*
G75*
G02X117996Y184050I3186J1400*
G01*
G75*
G02X124956I3480*
G01*
G75*
G02X124662Y182650I-3480*
G01*
X161315*
G37*
X168386D02*
G36*
X233701D01*
Y192650*
X158386*
X168386Y182650*
G37*
X28816Y202650D02*
G36*
X3000D01*
Y192650*
X28816*
Y202650*
G37*
X75050Y192650D02*
G36*
Y202650D01*
X67500*
Y198400*
X59000*
Y202650*
X34131*
Y192650*
X59000*
Y196900*
X67500*
Y192650*
X75050*
G37*
X85995Y202650D02*
G36*
X79050D01*
Y194778*
G75*
G02X80464Y196513I3400J-1327*
G01*
G75*
G02X81037Y197692I1989J-238*
G01*
X85995Y202650*
G37*
X103850D02*
G36*
X93410D01*
G75*
G02X90224Y200570I-3186J1400*
G01*
G75*
G02X89624Y200622I-1J3482*
G01*
X85032Y196030*
G75*
G02X86100Y193450I-2582J-2580*
G01*
G75*
G02X86011Y192650I-3651J1*
G01*
X87038*
G75*
G02X86744Y194050I3186J1400*
G01*
G75*
G02X93704I3480*
G01*
G75*
G02X93410Y192650I-3480*
G01*
X103850*
Y202650*
G37*
X151315Y192650D02*
G36*
X149282Y194682D01*
G75*
G02X148550Y196449I1766J1767*
G01*
G75*
G02Y196450I2820J0*
G01*
Y202650*
X124662*
G75*
G02X118290I-3186J1400*
G01*
X107850*
Y192650*
X118290*
G75*
G02X117996Y194050I3186J1400*
G01*
G75*
G02X124956I3480*
G01*
G75*
G02X124662Y192650I-3480*
G01*
X151315*
G37*
X158386D02*
G36*
X233701D01*
Y202650*
X208556*
G75*
G02X208624Y201850I-4682J-799*
G01*
G75*
G02X199124I-4750*
G01*
G75*
G02X199191Y202650I4750J0*
G01*
X179806*
G75*
G02X179874Y201850I-4682J-799*
G01*
G75*
G02X170374I-4750*
G01*
G75*
G02X170441Y202650I4750J0*
G01*
X153550*
Y197485*
X158386Y192650*
G37*
X75050Y202650D02*
G36*
Y205222D01*
X69622Y210650*
X67500*
Y208400*
X59000*
Y214049*
X3000*
Y202650*
X28816*
Y206350*
X26487*
G75*
G02X18800Y208850I-3437J2500*
G01*
G75*
G02X26487Y211350I4250*
G01*
X30572*
G75*
G02X32375I901J-2500*
G01*
X36413*
G75*
G02X44100Y208850I3437J-2500*
G01*
G75*
G02X36413Y206350I-4250*
G01*
X34131*
Y202650*
X59000*
Y206900*
X67500*
Y202650*
X75050*
G37*
X117996Y214049D02*
G36*
X93703D01*
Y210569*
X86742*
Y214049*
X71879*
X78463Y207466*
G75*
G02X79050Y206050I-1413J-1416*
G01*
Y202650*
X85995*
X86796Y203450*
G75*
G02X86744Y204049I3430J599*
G01*
G75*
G02Y204050I4101J0*
G01*
G75*
G02X93704I3480*
G01*
Y204050*
G75*
G02X93410Y202650I-3480*
G01*
X103850*
Y204650*
G75*
G02X104437Y206066I2000*
G01*
X109434Y211063*
G75*
G02X110850Y211650I1416J-1413*
G01*
X118956*
G75*
G02X117996Y214049I2520J2400*
G01*
G37*
X146801D02*
G36*
X145301D01*
Y212000*
X136801*
Y212912*
X131142Y208123*
G75*
G02X129849Y207650I-1293J1529*
G01*
X111678*
X107850Y203822*
Y202650*
X118290*
G75*
G02X117996Y204050I3186J1400*
G01*
G75*
G02X124956I3480*
G01*
G75*
G02X124662Y202650I-3480*
G01*
X148550*
Y212000*
X146801*
Y214049*
G37*
X131953D02*
G36*
X124956D01*
G75*
G02X123996Y211650I-3480J1*
G01*
X129117*
X131953Y214049*
G37*
X165801D02*
G36*
Y211500D01*
X156301*
Y214049*
X155301*
Y212000*
X153550*
Y202650*
X170441*
G75*
G02X179806I4682J-800*
G01*
X199191*
G75*
G02X208556I4682J-800*
G01*
X233701*
Y214049*
X165801*
G37*
X155301D02*
G36*
X156301D01*
Y221000*
X165801*
Y214049*
X233701*
Y233701*
X3000*
Y214049*
X59000*
Y216900*
X67500*
Y214650*
X70450*
G75*
G02X71866Y214063J-2000*
G01*
X71879Y214049*
X86742*
Y217530*
X93703*
Y214049*
X117996*
G75*
G02Y214050I3759J0*
G01*
G75*
G02X121476Y217530I3480*
G01*
G75*
G02X124956Y214050J-3480*
G01*
G75*
G02Y214049I-3759J0*
G01*
X131953*
X136358Y217777*
G75*
G02X136801Y218061I1300J-1539*
G01*
Y220500*
X145301*
Y214049*
X146801*
Y220500*
X155301*
Y214049*
G37*
D02*
D12*
X14050Y128050D02*
X11550D01*
X14550Y68650D02*
X12050D01*
X14550Y88450D02*
X12050D01*
X14550Y108250D02*
X12050D01*
X17050Y66150D02*
Y63650D01*
Y71150D02*
Y73650D01*
Y85950D02*
Y83450D01*
Y90950D02*
Y93450D01*
Y105750D02*
Y103250D01*
Y110750D02*
Y113250D01*
Y125050D02*
Y122550D01*
Y131050D02*
Y133550D01*
X19550Y68650D02*
X22050D01*
X19550Y88450D02*
X22050D01*
X19550Y108250D02*
X22050D01*
X20050Y128050D02*
X22550D01*
X28974Y25200D02*
X26474D01*
X31474Y22700D02*
Y20200D01*
Y27700D02*
Y30200D01*
X33974Y25200D02*
X36474D01*
X37672Y128050D02*
X35172D01*
X40672Y125050D02*
Y122550D01*
Y131050D02*
Y133550D01*
X43672Y128050D02*
X46172D01*
X60750Y182650D02*
X58250D01*
X63250Y180150D02*
Y177652D01*
Y185150D02*
Y187652D01*
X64150Y120250D02*
X61652D01*
X65650Y116750D02*
Y114250D01*
Y123750D02*
Y126250D01*
X65750Y182650D02*
X68250D01*
X67150Y120250D02*
X69652D01*
X75150Y25450D02*
X72650D01*
X77650Y22950D02*
Y20450D01*
Y27950D02*
Y30450D01*
X80150Y25450D02*
X82650D01*
X88494Y144050D02*
X85994D01*
X90224Y142320D02*
Y139820D01*
Y145780D02*
Y148280D01*
X91954Y144050D02*
X94454D01*
X119746D02*
X117246D01*
X119746Y154050D02*
X117246D01*
X121476Y142320D02*
Y139820D01*
Y145780D02*
Y148280D01*
Y152320D02*
Y149820D01*
Y155780D02*
Y158280D01*
X123206Y144050D02*
X125706D01*
X123206Y154050D02*
X125706D01*
X125550Y14050D02*
X123049D01*
X128050Y11550D02*
Y9049D01*
Y16550D02*
Y19049D01*
X130007Y41893D02*
X131775Y40125D01*
X130007Y47407D02*
X131775Y49175D01*
X130550Y14050D02*
X133049D01*
X157624Y137350D02*
X155124D01*
X158550Y216250D02*
X156049D01*
X160124Y134850D02*
Y132350D01*
Y139850D02*
Y142350D01*
X161050Y213750D02*
Y211250D01*
Y218750D02*
Y221250D01*
X162624Y137350D02*
X165124D01*
X163550Y216250D02*
X166049D01*
X172624Y201850D02*
X170124D01*
X175124Y199350D02*
Y196850D01*
Y204350D02*
Y206850D01*
X177624Y201850D02*
X180124D01*
X201374D02*
X198874D01*
X203874Y199350D02*
Y196850D01*
Y204350D02*
Y206850D01*
X206374Y201850D02*
X208874D01*
X216374Y147350D02*
X213874D01*
X218874Y144850D02*
Y142350D01*
Y149850D02*
Y152350D01*
X221374Y147350D02*
X223874D01*
D02*
D15*
X17050Y68650D03*
Y88450D03*
Y108250D03*
X23050Y168850D03*
Y208850D03*
X31474Y25200D03*
Y40200D03*
X39850Y168850D03*
Y208850D03*
X47050Y68650D03*
Y88450D03*
Y108250D03*
X77650Y25450D03*
Y40450D03*
X160124Y137350D03*
X175124D03*
Y171850D03*
Y201850D03*
X203874Y147350D03*
Y171850D03*
Y201850D03*
X218874Y147350D03*
D02*
D17*
X63250Y162650D03*
Y172650D03*
Y182650D03*
Y192650D03*
Y202650D03*
Y212650D03*
X118050Y14050D03*
X128050D03*
X141050Y216250D03*
X151050D03*
X161050D03*
X205124Y56100D03*
X215124D03*
D02*
D71*
X23050Y208850D02*
X31450D01*
X39850*
X31474Y40200D02*
Y157176D01*
X31450Y157200*
Y208850*
X31474Y40200D02*
X32050D01*
X45500Y53650*
X131250*
X137250Y47650*
Y44650*
X77650Y40450D02*
X82450Y45250D01*
X116650*
X117250Y44650*
Y32050*
X118050Y14050D02*
X117250D01*
Y32050*
X151050Y216250D02*
Y196450D01*
X175650Y171850*
X175124*
X174850Y39850D02*
X161050D01*
X153250Y32050*
X117250*
X174850Y39850D02*
X217100D01*
X225850Y48600*
Y130426*
X218926Y137350*
X175124*
Y171850*
D02*
D72*
X90224Y214050D03*
D02*
D73*
Y84050D03*
Y94050D03*
Y104050D03*
Y114050D03*
Y124050D03*
Y134050D03*
Y144050D03*
Y154050D03*
Y164050D03*
Y174050D03*
Y184050D03*
Y194050D03*
Y204050D03*
X121476Y84050D03*
Y94050D03*
Y104050D03*
Y114050D03*
Y124050D03*
Y134050D03*
Y144050D03*
Y154050D03*
Y164050D03*
Y174050D03*
Y184050D03*
Y194050D03*
Y204050D03*
Y214050D03*
D02*
D74*
X58150Y120250D03*
X65650D03*
D02*
D75*
X63874Y69244D03*
Y88456D03*
D02*
D76*
X17050Y128050D03*
Y145767D03*
X40672Y128050D03*
Y145767D03*
D02*
D78*
X63250Y212650D02*
X70450D01*
X77050Y206050*
Y109600*
X82600Y104050*
X90224*
X82450Y193450D02*
Y196276D01*
X90224Y204050*
X101050Y131650D02*
Y152650D01*
X90224Y163476*
Y164050*
X135035Y134050D02*
X121476D01*
X141050Y216250D02*
X137650D01*
X129850Y209650*
X110850*
X105850Y204650*
Y86100*
X107900Y84050*
X121476*
X156374Y94450D02*
X121476D01*
Y94050*
D02*
D79*
X135035Y134050D03*
X156374Y94450D03*
X174850Y39850D03*
D02*
D80*
X82450Y193450D03*
X101050Y131650D03*
D02*
D102*
X117250Y44650D03*
D02*
D103*
X127250D03*
X137250D03*
X0Y0D02*
M02*
