G04 EasyPC Gerber Version 21.0.3 Build 4286 *
G04 #@! TF.Part,Single*
G04 #@! TF.FileFunction,Soldermask,Bot *
G04 #@! TF.FilePolarity,Negative *
%FSLAX35Y35*%
%MOIN*%
G04 #@! TA.AperFunction,ComponentPad*
%ADD95R,0.04600X0.08600*%
%ADD93R,0.05061X0.05061*%
%ADD24R,0.06600X0.06600*%
%ADD91R,0.08218X0.08218*%
%ADD96C,0.04931*%
%ADD94C,0.05061*%
G04 #@! TA.AperFunction,ViaPad*
%ADD99C,0.05400*%
%ADD98C,0.06200*%
G04 #@! TA.AperFunction,WasherPad*
%ADD22C,0.06600*%
G04 #@! TA.AperFunction,ComponentPad*
%ADD97C,0.07600*%
%ADD92C,0.08218*%
X0Y0D02*
D02*
D22*
X15874Y83650D03*
Y103600D03*
X29074Y173600D03*
Y213600D03*
X31474Y25200D03*
Y40200D03*
X45124Y173600D03*
Y213600D03*
X45874Y83650D03*
Y103600D03*
X70124Y24850D03*
Y39850D03*
X160124Y137350D03*
X175124D03*
Y171850D03*
Y201850D03*
X203874Y147350D03*
Y171850D03*
Y201850D03*
X218874Y147350D03*
D02*
D24*
X61450Y159050D03*
Y169050D03*
Y179050D03*
Y189050D03*
Y199050D03*
Y209050D03*
X110124Y29850D03*
Y39850D03*
X144850Y179450D03*
Y189450D03*
Y199450D03*
X205124Y56100D03*
X215124D03*
D02*
D91*
X141374Y59850D03*
D02*
D92*
Y39850D03*
Y49850D03*
D02*
D93*
X90224Y213450D03*
D02*
D94*
Y83450D03*
Y93450D03*
Y103450D03*
Y113450D03*
Y123450D03*
Y133450D03*
Y143450D03*
Y153450D03*
Y163450D03*
Y173450D03*
Y183450D03*
Y193450D03*
Y203450D03*
X121476Y83450D03*
Y93450D03*
Y103450D03*
Y113450D03*
Y123450D03*
Y133450D03*
Y143450D03*
Y153450D03*
Y163450D03*
Y173450D03*
Y183450D03*
Y193450D03*
Y203450D03*
Y213450D03*
D02*
D95*
X53950Y137650D03*
X61450D03*
D02*
D96*
X63874Y83644D03*
Y102856D03*
D02*
D97*
X18874Y128600D03*
Y146317D03*
X42496Y128600D03*
Y146317D03*
D02*
D98*
X135035Y133600D03*
X156374Y94850D03*
X203874Y122350D03*
D02*
D99*
X101050Y131650D03*
X0Y0D02*
M02*
