G04 EasyPC Gerber Version 21.0.3 Build 4286 *
G04 #@! TF.Part,Single*
G04 #@! TF.FileFunction,Other,rc-car - Top Documentation *
G04 #@! TF.FilePolarity,Positive *
%FSLAX35Y35*%
%MOIN*%
%ADD14C,0.00197*%
%ADD101C,0.00300*%
%ADD11C,0.00500*%
X0Y0D02*
D02*
D11*
X61450Y147587D02*
Y151337D01*
Y149463D02*
X62387D01*
X64575Y151337*
X62387Y149463D02*
X64575Y147587D01*
X118450Y45037D02*
X120950D01*
X119700Y43787D02*
Y46287D01*
X119050Y29437D02*
X121550D01*
X152050Y178525D02*
X152363Y177900D01*
X152987Y177587*
X154237*
X154863Y177900*
X155175Y178525*
X154863Y179150*
X154237Y179463*
X152987*
X152363Y179775*
X152050Y180400*
X152363Y181025*
X152987Y181337*
X154237*
X154863Y181025*
X155175Y180400*
D02*
D14*
X86385Y217934D02*
X125315D01*
Y78966*
X86385*
Y217934*
X154956Y71582D02*
Y28118D01*
X134484*
Y71582*
X154956*
X206885Y76277D02*
X170862D01*
Y110923*
X206885*
Y76277*
D02*
D101*
X161650Y24087D02*
X162900Y21587D01*
X164150Y24087*
X169150Y21900D02*
X168837Y21587D01*
X168213*
X167587*
X166963Y21900*
X166650Y22525*
Y23463*
X166963Y23775*
X167587Y24087*
X168213*
X168837Y23775*
X169150Y23463*
Y23150*
X168837Y22837*
X168213Y22525*
X167587*
X166963Y22837*
X166650Y23150*
X171650Y21587D02*
Y24087D01*
Y23150D02*
X171963Y23775D01*
X172587Y24087*
X173213*
X173837Y23775*
X178213Y21587D02*
X178525Y21900D01*
X178213Y22213*
X177900Y21900*
X178213Y21587*
Y23150D02*
X178525Y23463D01*
X178213Y23775*
X177900Y23463*
X178213Y23150*
X186963Y21900D02*
X187587Y21587D01*
X188213*
X188837Y21900*
X189150Y22525*
Y24400*
X188837Y25025*
X188213Y25337*
X187587*
X186963Y25025*
X186650Y24400*
Y22525*
X186963Y21900*
X188837Y25025*
X191963Y21587D02*
X192275Y21900D01*
X191963Y22213*
X191650Y21900*
X191963Y21587*
X197275D02*
X198525D01*
X197900D02*
Y25337D01*
X197275Y24713*
X201963Y21900D02*
X202587Y21587D01*
X203213*
X203837Y21900*
X204150Y22525*
Y24400*
X203837Y25025*
X203213Y25337*
X202587*
X201963Y25025*
X201650Y24400*
Y22525*
X201963Y21900*
X203837Y25025*
X164150Y17150D02*
X163837Y17775D01*
X163213Y18087*
X162587*
X161963Y17775*
X161650Y17150*
Y16525*
X161963Y15900*
X162587Y15587*
X163213*
X163837Y15900*
X164150Y16525*
Y15587D02*
Y19337D01*
X169150Y15900D02*
X168837Y15587D01*
X168213*
X167587*
X166963Y15900*
X166650Y16525*
Y17463*
X166963Y17775*
X167587Y18087*
X168213*
X168837Y17775*
X169150Y17463*
Y17150*
X168837Y16837*
X168213Y16525*
X167587*
X166963Y16837*
X166650Y17150*
X171650Y15900D02*
X172275Y15587D01*
X173525*
X174150Y15900*
Y16525*
X173525Y16837*
X172275*
X171650Y17150*
Y17775*
X172275Y18087*
X173525*
X174150Y17775*
X177900Y15587D02*
Y18087D01*
Y19025D02*
X184150Y17150*
X183837Y17775D01*
X183213Y18087*
X182587*
X181963Y17775*
X181650Y17150*
Y16837*
X181963Y16213*
X182587Y15900*
X183213*
X183837Y16213*
X184150Y16837*
Y18087D02*
Y15587D01*
X183837Y14963*
X183213Y14650*
X182275*
X181650Y14963*
X186650Y15587D02*
Y18087D01*
Y17150D02*
X186963Y17775D01*
X187587Y18087*
X188213*
X188837Y17775*
X189150Y17150*
Y15587*
X193213D02*
X193525Y15900D01*
X193213Y16213*
X192900Y15900*
X193213Y15587*
Y17150D02*
X193525Y17463D01*
X193213Y17775*
X192900Y17463*
X193213Y17150*
X201650Y15587D02*
X204150Y18087D01*
Y15587D02*
X201650Y18087D01*
X206650Y15587D02*
Y19337D01*
Y16837D02*
X207587D01*
X209150Y18087*
X207587Y16837D02*
X209150Y15587D01*
X211650Y17775D02*
X212275Y18087D01*
X213213*
X213837Y17775*
X214150Y17150*
Y16213*
X213837Y15900*
X213213Y15587*
X212587*
X211963Y15900*
X211650Y16213*
Y16525*
X211963Y16837*
X212587Y17150*
X213213*
X213837Y16837*
X214150Y16525*
Y16213D02*
Y15587D01*
X216650D02*
Y18087D01*
Y17150D02*
X216963Y17775D01*
X217587Y18087*
X218213*
X218837Y17775*
X219150Y17150*
Y15587*
X224150Y17150D02*
X223837Y17775D01*
X223213Y18087*
X222587*
X221963Y17775*
X221650Y17150*
Y16837*
X221963Y16213*
X222587Y15900*
X223213*
X223837Y16213*
X224150Y16837*
Y18087D02*
Y15587D01*
X223837Y14963*
X223213Y14650*
X222275*
X221650Y14963*
X164150Y11150D02*
X163837Y11775D01*
X163213Y12087*
X162587*
X161963Y11775*
X161650Y11150*
Y10525*
X161963Y9900*
X162587Y9587*
X163213*
X163837Y9900*
X164150Y10525*
Y9587D02*
Y13337D01*
X166650Y11775D02*
X167275Y12087D01*
X168213*
X168837Y11775*
X169150Y11150*
Y10213*
X168837Y9900*
X168213Y9587*
X167587*
X166963Y9900*
X166650Y10213*
Y10525*
X166963Y10837*
X167587Y11150*
X168213*
X168837Y10837*
X169150Y10525*
Y10213D02*
Y9587D01*
X172275Y12087D02*
X173525D01*
X172900Y12713D02*
Y9900D01*
X173213Y9587*
X173525*
X173837Y9900*
X179150D02*
X178837Y9587D01*
X178213*
X177587*
X176963Y9900*
X176650Y10525*
Y11463*
X176963Y11775*
X177587Y12087*
X178213*
X178837Y11775*
X179150Y11463*
Y11150*
X178837Y10837*
X178213Y10525*
X177587*
X176963Y10837*
X176650Y11150*
X183213Y9587D02*
X183525Y9900D01*
X183213Y10213*
X182900Y9900*
X183213Y9587*
Y11150D02*
X183525Y11463D01*
X183213Y11775*
X182900Y11463*
X183213Y11150*
X191963Y9900D02*
X192587Y9587D01*
X193213*
X193837Y9900*
X194150Y10525*
Y12400*
X193837Y13025*
X193213Y13337*
X192587*
X191963Y13025*
X191650Y12400*
Y10525*
X191963Y9900*
X193837Y13025*
X197587Y11463D02*
X198213D01*
X198837Y11775*
X199150Y12400*
X198837Y13025*
X198213Y13337*
X197587*
X196963Y13025*
X196650Y12400*
X196963Y11775*
X197587Y11463*
X196963Y11150*
X196650Y10525*
X196963Y9900*
X197587Y9587*
X198213*
X198837Y9900*
X199150Y10525*
X198837Y11150*
X198213Y11463*
X201650Y9587D02*
X204775Y13337D01*
X206963Y9900D02*
X207587Y9587D01*
X208213*
X208837Y9900*
X209150Y10525*
Y12400*
X208837Y13025*
X208213Y13337*
X207587*
X206963Y13025*
X206650Y12400*
Y10525*
X206963Y9900*
X208837Y13025*
X212587Y9587D02*
X213213Y9900D01*
X213837Y10525*
X214150Y11463*
Y12400*
X213837Y13025*
X213213Y13337*
X212587*
X211963Y13025*
X211650Y12400*
X211963Y11775*
X212587Y11463*
X213213*
X213837Y11775*
X214150Y12400*
X216650Y9587D02*
X219775Y13337D01*
X222275Y9587D02*
X223525D01*
X222900D02*
Y13337D01*
X222275Y12713*
X227587Y9587D02*
X228213Y9900D01*
X228837Y10525*
X229150Y11463*
Y12400*
X228837Y13025*
X228213Y13337*
X227587*
X226963Y13025*
X226650Y12400*
X226963Y11775*
X227587Y11463*
X228213*
X228837Y11775*
X229150Y12400*
X0Y0D02*
M02*
