G04 EasyPC Gerber Version 21.0.3 Build 4286 *
G04 #@! TF.Part,Single*
G04 #@! TF.FileFunction,Other,rc-car - Top Documentation *
G04 #@! TF.FilePolarity,Positive *
%FSLAX35Y35*%
%MOIN*%
%ADD14C,0.00197*%
%ADD101C,0.00300*%
%ADD11C,0.00500*%
X0Y0D02*
D02*
D11*
X61450Y147587D02*
Y151337D01*
Y149463D02*
X62387D01*
X64575Y151337*
X62387Y149463D02*
X64575Y147587D01*
X107650Y13237D02*
X110150D01*
X108900Y11987D02*
Y14487D01*
X135250Y225325D02*
X135563Y224700D01*
X136187Y224387*
X137437*
X138063Y224700*
X138375Y225325*
X138063Y225950*
X137437Y226263*
X136187*
X135563Y226575*
X135250Y227200*
X135563Y227825*
X136187Y228137*
X137437*
X138063Y227825*
X138375Y227200*
X136450Y13837D02*
X138950D01*
D02*
D14*
X86385Y218534D02*
X125315D01*
Y79566*
X86385*
Y218534*
X105281Y58725D02*
X149219D01*
Y37741*
X105281*
Y58725*
X206885Y76277D02*
X170862D01*
Y110923*
X206885*
Y76277*
D02*
D101*
X164650Y24687D02*
X165900Y22187D01*
X167150Y24687*
X172150Y22500D02*
X171837Y22187D01*
X171213*
X170587*
X169963Y22500*
X169650Y23125*
Y24063*
X169963Y24375*
X170587Y24687*
X171213*
X171837Y24375*
X172150Y24063*
Y23750*
X171837Y23437*
X171213Y23125*
X170587*
X169963Y23437*
X169650Y23750*
X174650Y22187D02*
Y24687D01*
Y23750D02*
X174963Y24375D01*
X175587Y24687*
X176213*
X176837Y24375*
X181213Y22187D02*
X181525Y22500D01*
X181213Y22813*
X180900Y22500*
X181213Y22187*
Y23750D02*
X181525Y24063D01*
X181213Y24375*
X180900Y24063*
X181213Y23750*
X189963Y22500D02*
X190587Y22187D01*
X191213*
X191837Y22500*
X192150Y23125*
Y25000*
X191837Y25625*
X191213Y25937*
X190587*
X189963Y25625*
X189650Y25000*
Y23125*
X189963Y22500*
X191837Y25625*
X194963Y22187D02*
X195275Y22500D01*
X194963Y22813*
X194650Y22500*
X194963Y22187*
X200275D02*
X201525D01*
X200900D02*
Y25937D01*
X200275Y25313*
X204963Y22500D02*
X205587Y22187D01*
X206213*
X206837Y22500*
X207150Y23125*
Y25000*
X206837Y25625*
X206213Y25937*
X205587*
X204963Y25625*
X204650Y25000*
Y23125*
X204963Y22500*
X206837Y25625*
X167150Y17750D02*
X166837Y18375D01*
X166213Y18687*
X165587*
X164963Y18375*
X164650Y17750*
Y17125*
X164963Y16500*
X165587Y16187*
X166213*
X166837Y16500*
X167150Y17125*
Y16187D02*
Y19937D01*
X172150Y16500D02*
X171837Y16187D01*
X171213*
X170587*
X169963Y16500*
X169650Y17125*
Y18063*
X169963Y18375*
X170587Y18687*
X171213*
X171837Y18375*
X172150Y18063*
Y17750*
X171837Y17437*
X171213Y17125*
X170587*
X169963Y17437*
X169650Y17750*
X174650Y16500D02*
X175275Y16187D01*
X176525*
X177150Y16500*
Y17125*
X176525Y17437*
X175275*
X174650Y17750*
Y18375*
X175275Y18687*
X176525*
X177150Y18375*
X180900Y16187D02*
Y18687D01*
Y19625D02*
X187150Y17750*
X186837Y18375D01*
X186213Y18687*
X185587*
X184963Y18375*
X184650Y17750*
Y17437*
X184963Y16813*
X185587Y16500*
X186213*
X186837Y16813*
X187150Y17437*
Y18687D02*
Y16187D01*
X186837Y15563*
X186213Y15250*
X185275*
X184650Y15563*
X189650Y16187D02*
Y18687D01*
Y17750D02*
X189963Y18375D01*
X190587Y18687*
X191213*
X191837Y18375*
X192150Y17750*
Y16187*
X196213D02*
X196525Y16500D01*
X196213Y16813*
X195900Y16500*
X196213Y16187*
Y17750D02*
X196525Y18063D01*
X196213Y18375*
X195900Y18063*
X196213Y17750*
X204650Y16187D02*
X207150Y18687D01*
Y16187D02*
X204650Y18687D01*
X209650Y16187D02*
Y19937D01*
Y17437D02*
X210587D01*
X212150Y18687*
X210587Y17437D02*
X212150Y16187D01*
X214650Y18375D02*
X215275Y18687D01*
X216213*
X216837Y18375*
X217150Y17750*
Y16813*
X216837Y16500*
X216213Y16187*
X215587*
X214963Y16500*
X214650Y16813*
Y17125*
X214963Y17437*
X215587Y17750*
X216213*
X216837Y17437*
X217150Y17125*
Y16813D02*
Y16187D01*
X219650D02*
Y18687D01*
Y17750D02*
X219963Y18375D01*
X220587Y18687*
X221213*
X221837Y18375*
X222150Y17750*
Y16187*
X227150Y17750D02*
X226837Y18375D01*
X226213Y18687*
X225587*
X224963Y18375*
X224650Y17750*
Y17437*
X224963Y16813*
X225587Y16500*
X226213*
X226837Y16813*
X227150Y17437*
Y18687D02*
Y16187D01*
X226837Y15563*
X226213Y15250*
X225275*
X224650Y15563*
X167150Y11750D02*
X166837Y12375D01*
X166213Y12687*
X165587*
X164963Y12375*
X164650Y11750*
Y11125*
X164963Y10500*
X165587Y10187*
X166213*
X166837Y10500*
X167150Y11125*
Y10187D02*
Y13937D01*
X169650Y12375D02*
X170275Y12687D01*
X171213*
X171837Y12375*
X172150Y11750*
Y10813*
X171837Y10500*
X171213Y10187*
X170587*
X169963Y10500*
X169650Y10813*
Y11125*
X169963Y11437*
X170587Y11750*
X171213*
X171837Y11437*
X172150Y11125*
Y10813D02*
Y10187D01*
X175275Y12687D02*
X176525D01*
X175900Y13313D02*
Y10500D01*
X176213Y10187*
X176525*
X176837Y10500*
X182150D02*
X181837Y10187D01*
X181213*
X180587*
X179963Y10500*
X179650Y11125*
Y12063*
X179963Y12375*
X180587Y12687*
X181213*
X181837Y12375*
X182150Y12063*
Y11750*
X181837Y11437*
X181213Y11125*
X180587*
X179963Y11437*
X179650Y11750*
X186213Y10187D02*
X186525Y10500D01*
X186213Y10813*
X185900Y10500*
X186213Y10187*
Y11750D02*
X186525Y12063D01*
X186213Y12375*
X185900Y12063*
X186213Y11750*
X194963Y10500D02*
X195587Y10187D01*
X196213*
X196837Y10500*
X197150Y11125*
Y13000*
X196837Y13625*
X196213Y13937*
X195587*
X194963Y13625*
X194650Y13000*
Y11125*
X194963Y10500*
X196837Y13625*
X200587Y12063D02*
X201213D01*
X201837Y12375*
X202150Y13000*
X201837Y13625*
X201213Y13937*
X200587*
X199963Y13625*
X199650Y13000*
X199963Y12375*
X200587Y12063*
X199963Y11750*
X199650Y11125*
X199963Y10500*
X200587Y10187*
X201213*
X201837Y10500*
X202150Y11125*
X201837Y11750*
X201213Y12063*
X204650Y10187D02*
X207775Y13937D01*
X209963Y10500D02*
X210587Y10187D01*
X211213*
X211837Y10500*
X212150Y11125*
Y13000*
X211837Y13625*
X211213Y13937*
X210587*
X209963Y13625*
X209650Y13000*
Y11125*
X209963Y10500*
X211837Y13625*
X215587Y10187D02*
X216213Y10500D01*
X216837Y11125*
X217150Y12063*
Y13000*
X216837Y13625*
X216213Y13937*
X215587*
X214963Y13625*
X214650Y13000*
X214963Y12375*
X215587Y12063*
X216213*
X216837Y12375*
X217150Y13000*
X219650Y10187D02*
X222775Y13937D01*
X225275Y10187D02*
X226525D01*
X225900D02*
Y13937D01*
X225275Y13313*
X230587Y10187D02*
X231213Y10500D01*
X231837Y11125*
X232150Y12063*
Y13000*
X231837Y13625*
X231213Y13937*
X230587*
X229963Y13625*
X229650Y13000*
X229963Y12375*
X230587Y12063*
X231213*
X231837Y12375*
X232150Y13000*
X0Y0D02*
M02*
